<?xml version="1.0" standalone="no"?>
<!DOCTYPE svg PUBLIC "-//W3C//DTD SVG 1.1//EN" "http://www.w3.org/Graphics/SVG/1.1/DTD/svg11.dtd" >
<svg xmlns="http://www.w3.org/2000/svg">
<metadata>
This is a custom SVG font generated by IcoMoon.
<iconset grid="16"></iconset>
</metadata>
<defs>
<font id="icomoon" horiz-adv-x="512" >
<font-face units-per-em="512" ascent="480" descent="-32" />
<missing-glyph horiz-adv-x="512" />
<glyph class="hidden" unicode="&#xf000;" d="M0,480L 512 -32L0 -32 z" horiz-adv-x="0" />
<glyph unicode="&#x21;" d="M 337.32,446.168c-85.752,0-155.608-69.864-155.608-156.344c0-20.512, 4.088-40.072, 11.352-58.032l 123.376-95.968
	c 6.856-0.936, 13.784-1.568, 20.872-1.568C 423.784,134.256, 493.672,204.080, 493.672,289.816C 493.672,376.296, 423.784,446.168, 337.32,446.168z M 419.776,282.032L 327.416,282.032 L 327.416,392.864 l 18.472,0 l0-92.36 l 73.888,0 L 419.776,282.032 zM 161.168,152.728L 50.328,152.728L 50.328,41.888L 161.168,41.888L 161.168-32L 327.416,97.304L 161.168,226.616 z" data-tags="outlookExport" />
<glyph unicode="&#x24;" d="M 269.272,237.384c-25.464,0-46-20.624-46-45.376c0-25.464, 20.552-46.056, 46-46.056
		c 24.824,0, 45.376,20.616, 45.376,46.056C 314.656,216.744, 294.088,237.384, 269.272,237.384zM 450.648,340.336L 217.584,340.336 l-32.576,60.408l-118.296,0 L 32,336.52l0-268.488 L 68.104,38.296L 450.648,38.296 L 479.040,68.032
		L 479.040,313.12 L 450.648,340.336z M 394.456,171.192l-37.336,0 c-2.064-12.080-4.976-17.608-9.208-24.68l 26.216-26.808l-32.584-32.968l-23.296,26.056
		C 311.216,108.592, 297.816,105.592, 297.816,103.456L 297.816,62.448 l-48.328,0 l0,41.008 c-12.080,2.136-18.048,5.688-25.192,9.952l-27.040-26.976l-32.352,32.64l 25.984,27.44
		C 185.936,153.576, 182.872,159.112, 180.736,171.192L 140.744,171.192 l0,48.328 l 40,0 c 2.136,0, 5.688,13.912, 9.952,20.96l-26.216,24.928l 31.904,32.032l 27.936-26.592
		C 232.112,275.176, 237.4,277.704, 249.48,279.856L 249.48,316.184 l 48.328,0 l0-36.328 c0-2.136, 13.4-4.976, 20.456-9.952l 24.752,26.984l 31.856-32.648l-26.584-23.736
		c 4.208-7.048, 6.768-20.96, 8.824-20.96L 394.456,219.52 L 394.456,171.192 z" data-tags="dossier" />
<glyph unicode="&#x25;" d="M 416.048,306.416c-11.512,0-22.472-2.448-32.408-6.808l-52.8,63.232
	c 2.528,7.84, 3.928,16.184, 3.928,24.856c0,44.792-36.488,82.136-82.088,82.136c-44.792,0-81.272-37.336-81.272-82.136
	c0-6.664, 0.896-13.104, 2.416-19.312l-0.040,0.048l-56.016-67.136c-8.872,3.248-18.44,5.112-28.496,5.112C 44.488,306.416, 8,269.928, 8,224.328
	c0-39.096, 27.8-71.84, 64.648-79.544l 0.872-1.728l 1.16,1.392c 4.744-0.864, 9.608-1.392, 14.6-1.392c 11.768,0, 22.904,2.472, 32.992,6.84
	l 53.040-63.8c-2.512-7.912-3.896-16.352-3.896-25.144c0-44.864, 36.488-81.32, 81.272-81.32c 45.6,0, 82.088,36.456, 82.088,81.32
	c0,8.8-1.392,17.24-3.912,25.168l 52.936,63.648c 9.896-4.304, 20.8-6.72, 32.248-6.72c 44.8,0, 82.144,36.488, 82.144,81.272
	C 498.184,269.928, 460.84,306.416, 416.048,306.416z M 165.904,253.888l 50.856,61.016c 10.848-5.384, 23.016-8.496, 35.928-8.496
	c 11.56,0, 22.528,2.368, 32.48,6.6l 53.28-64.152c-2.384-7.736-3.672-15.976-3.672-24.536c0-8.512, 1.336-16.72, 3.776-24.44l-52.904-63.68
	c-10.072,4.384-21.2,6.84-32.952,6.84c-11.528,0-22.488-2.456-32.432-6.832l-52.784,63.24c 2.536,7.84, 3.944,16.184, 3.944,24.856
	C 171.416,234.784, 169.416,244.72, 165.904,253.888z" data-tags="arbeitsraum" />
<glyph unicode="&#x26;" d="M 416.192,255.512L 296.264,255.512 c 29.032-23.68, 48.12-59.56, 48.12-100.056l0-172.584 l 152.72,0 L 497.112,173.808 
	C 497.112,218.856, 461.232,255.512, 416.192,255.512zM 358.144,300.6c 44.328,0, 80.128,36.648, 80.128,81.696S 402.472,464, 358.144,464
	c-45.056,0-80.96-36.648-80.96-81.696S 313.088,300.6, 358.144,300.6zM 230.592,221.16l-126.784,0 C 54.936,221.16, 16,182.2, 16,134.136l0-151.264 l 302.4,0 L 318.4,134.136 
	C 318.4,182.2, 278.704,221.16, 230.592,221.16zM 167.208,269.264c 48.112,0, 87.080,38.936, 87.080,87.088c0,48.104-38.968,87.816-87.080,87.816
	s-87.816-39.704-87.816-87.816C 79.392,308.2, 119.104,269.264, 167.208,269.264z" data-tags="kontaktgruppe" />
<glyph unicode="&#x27;" d="M 187.944,204.672L0-32.544L 229.816,161.88 	zM 170.264,222.392L0-32.544L 254.936,128.456 	zM 334.936,25.152c 10.224-10.272, 25.128,11.168, 25.128,25.168
		c-3.728,51.064-40.024,121.832-40.024,121.832l 113.528,140.472c0,0, 28.88-26.024, 46.512-7.456l 25.064,26.072c 8.368,8.36, 11.184,23.264,0,34.384
		L 401.040,472.664c-11.264,11.12-25.168,8.36-33.528,0L 341.44,446.584c-17.672-18.584, 7.456-48.384, 7.456-48.384L 212.096,282.864
		c0,0-69.768,37.208-119.064,40.92c-13.944,0.912-34.432-15.8-25.12-25.12L 334.936,25.152z
		M 334.936,25.152c 10.224-10.272, 25.128,11.168, 25.128,25.168c-3.728,51.064-40.024,121.832-40.024,121.832l 113.528,140.472
		c0,0, 28.88-26.024, 46.512-7.456l 25.064,26.072c 8.368,8.36, 11.184,23.264,0,34.384L 401.040,472.664c-11.264,11.12-25.168,8.36-33.528,0
		L 341.44,446.584c-17.672-18.584, 7.456-48.384, 7.456-48.384L 212.096,282.864c0,0-69.768,37.208-119.064,40.92
		c-13.944,0.912-34.432-15.8-25.12-25.12L 334.936,25.152zM 398.136,392.616L 230.728,220.528L 241.904,280.040L 369.368,406.608 
			z" data-tags="testicon2" />
<glyph unicode="&#x28;" d="M 286.208,379.648l-60.416,0 0,135.68 60.416,0 0-135.68z m0-376.32l-60.416,0 0,135.68 60.416,0 0-135.68z m 90.112,225.792l0,60.416 135.68,0 0-60.416-135.68,0z m-376.32,60.416l 135.68,0 0-60.416-135.68,0 0,60.416z m 415.744-232.448l-95.744,95.744 42.496,42.496 95.744-95.744z m0,404.48l 42.496-42.496-95.744-95.744-42.496,42.496z m-319.488-404.48l-42.496,42.496 95.744,95.744 42.496-42.496z" data-tags="in-bearbeitung" />
<glyph unicode="&#x29;" d="M 479.104,224q 0-4.608 -2.56-9.216t -5.12-6.656l -2.56-2.048 -297.984-185.344q -16.384-10.752 -27.648-4.096t -11.776,27.648l0,74.752 -104.448,0q -10.752,0 -18.944,8.192t -8.192,18.944l0,156.16q0,10.752 8.192,18.944t 18.944,8.192l 104.448,0 0,75.264q0,20.48 11.776,27.136t 27.648-4.096l 297.984-185.344q 10.24-7.68 10.24-17.92z" horiz-adv-x="479.744" data-tags="right-fat" />
<glyph unicode="&#x2a;" d="M 475.502,295.68q0-6.144-7.68-13.824l-103.936-101.376 24.576-142.848q 0.512-2.048 0.512-5.632 0-6.144-3.072-10.24t-8.704-4.096q-5.632,0-11.264,3.584l-128.512,67.584-128.512-67.584q-6.144-3.584-11.264-3.584-6.144,0-9.216,4.096t-3.072,10.24q0,1.536 0.512,5.632l 24.576,142.848-103.936,101.376q-7.168,7.68-7.168,13.824 0,10.752 15.872,13.312l 143.36,20.992 64.512,130.048q 5.632,11.776 13.824,11.776t 13.824-11.776l 64.512-130.048 143.36-20.992q 15.872-2.56 15.872-13.312z" horiz-adv-x="475.136" data-tags="favoriten" />
<glyph unicode="&#x2b;" d="M 292.315,224.512q0,30.208-21.504,51.712t-51.712,21.504-51.712-21.504-21.504-51.712 21.504-51.712 51.712-21.504 51.712,21.504 21.504,51.712z m 146.432,31.232l0-63.488q0-3.584-2.048-6.656t-5.632-3.584l-52.736-8.192q-5.632-15.36-11.264-26.112 10.24-14.336 30.72-39.424 3.072-3.584 3.072-7.168t-2.56-6.656q-7.68-10.752-28.16-30.72t-26.624-20.48q-3.584,0-7.68,2.56l-39.424,30.72q-12.8-6.656-26.112-10.752-4.608-38.912-8.192-53.248-2.048-8.192-10.24-8.192l-63.488,0q-4.096,0-7.168,2.56t-3.072,6.144l-8.192,52.736q-13.824,4.608-25.6,10.752l-40.448-30.72q-3.072-2.56-7.168-2.56t-7.168,3.072q-35.84,32.768-47.104,48.128-2.048,3.072-2.048,6.656t 2.048,6.656q 4.096,6.144 14.336,18.944t 15.36,19.968q-7.68,14.336-11.776,28.16l-52.224,7.68q-3.584,0.512-6.144,3.584t-2.048,6.656l0,63.488q0,3.584 2.048,6.656t 5.632,3.584l 53.248,8.192q 4.096,13.312 11.264,26.112-11.264,16.384-30.72,39.424-3.072,3.584-3.072,6.656t 2.56,6.656q 7.68,10.24 28.16,30.72t 27.136,20.48q 3.584,0 7.68-3.072l 39.424-30.72q 12.8,6.656 26.112,10.752 4.608,38.912 8.192,53.248 2.048,8.192 10.24,8.192l 63.488,0q 4.096,0 7.168-2.56t 3.072-6.144l 8.192-52.736q 13.824-4.608 25.6-10.752l 40.448,30.72q 2.56,2.56 6.656,2.56 3.584,0 7.168-3.072 36.864-33.792 47.104-48.64 2.048-2.048 2.048-6.144 0-3.584-2.048-6.656-4.096-6.144-14.336-18.944t-15.36-19.968q 7.68-14.336 11.776-28.16l 52.224-8.192q 3.584-0.512 6.144-3.584t 2.048-6.656z" horiz-adv-x="438.784" data-tags="prozess" />
<glyph unicode="&#x2c;" d="M 292.352,87.808l0,54.272q0,4.096-2.56,6.656t-6.656,2.56l-54.784,0q-3.584,0-6.656-2.56t-2.56-6.656l0-54.272q0-4.096 2.56-6.656t 6.656-2.56l 54.784,0q 3.584,0 6.656,2.56t 2.56,6.656z m-0.512,107.008l 5.12,131.072q0,3.584-3.072,5.632-3.584,3.072-6.656,3.072l-62.976,0q-3.072,0-6.656-3.072-3.072-2.048-3.072-6.144l 4.608-130.56q0-3.072 3.072-4.608t 6.656-2.048l 52.736,0q 4.096,0 6.656,2.048t 3.072,4.608z m-4.096,266.752l 219.648-402.432q 10.24-17.92-0.512-35.84-4.608-8.192-13.312-13.312t-17.92-4.608l-438.784,0q-9.728,0-17.92,4.608t-13.312,13.312q-10.752,17.92-0.512,35.84l 219.648,402.432q 4.608,8.704 13.312,13.824t 18.432,5.12 18.432-5.12 13.312-13.824z" data-tags="ueberfaellig" />
<glyph unicode="&#x2d;" d="M 255.898,224.512q0,30.196-21.495,51.692t-51.692,21.495-51.692-21.495-21.495-51.692 21.495-51.692 51.692-21.495 51.692,21.495 21.495,51.692z m 219.56-146.373q0,14.842-10.748,25.59t-25.59,10.748-25.59-10.748-10.748-25.59q0-15.354 10.748-25.59t 25.59-10.748 25.59,10.748 10.748,25.59z m0,292.235q0,14.842-10.748,25.59t-25.59,10.748-25.59-10.748-10.748-25.59q0-15.354 10.748-25.59t 25.59-10.748 25.59,10.748 10.748,25.59z m-109.524-120.272l0-52.715q0-3.071-2.047-5.63t-4.606-3.071l-44.015-6.653q-3.071-10.236-9.212-21.495 9.724-13.818 25.59-32.755 2.047-3.071 2.047-5.63 0-3.582-2.047-5.63-6.653-8.7-23.543-25.59t-22.519-16.889q-3.071,0-6.141,2.047l-32.755,25.59q-10.748-5.63-22.007-8.7-3.071-30.708-6.653-44.015-2.047-6.653-8.7-6.653l-53.226,0q-3.071,0-5.63,2.047t-3.071,5.118l-6.653,43.503q-9.724,3.071-21.495,8.7l-33.779-25.59q-2.047-2.047-5.63-2.047-3.071,0-6.141,2.047-40.944,37.873-40.944,45.55 0,2.559 2.047,5.63 3.071,4.094 11.771,15.354t 13.307,17.401q-6.653,12.795-10.236,23.543l-43.503,6.653q-3.071,0.512-4.606,2.559t-2.047,5.63l0,52.715q0,3.071 2.047,5.63t 4.606,3.071l 44.015,6.653q 3.071,10.236 9.212,21.495-9.724,13.818-25.59,32.755-2.047,3.071-2.047,5.63 0,3.582 2.047,5.63 6.141,8.7 23.543,25.59t 22.519,16.889q 3.071,0 6.141-2.047l 32.755-25.59q 9.724,5.118 22.007,9.212 3.071,30.708 6.653,44.015 2.047,6.653 8.7,6.653l 53.226,0q 3.071,0 5.63-2.047t 3.071-5.118l 6.653-43.503q 9.724-3.071 21.495-8.7l 33.779,25.59q 2.047,2.047 5.63,2.047 3.071,0 6.141-2.047 40.944-37.873 40.944-45.55 0-2.559-2.047-5.63-3.582-4.606-11.771-15.354t-12.795-16.889q 6.653-13.818 9.724-23.543l 43.503-6.653q 3.071-0.512 4.606-3.071t 2.047-5.63z m 182.711-152.003l0-39.92q0-4.606-42.479-8.7-3.582-7.677-8.7-14.842 14.33-32.243 14.33-39.408 0-1.023-1.023-2.047-34.802-20.472-35.314-20.472-2.047,0-13.307,13.307t-14.842,19.448q-5.63-0.512-8.7-0.512t-8.7,0.512q-4.094-6.141-14.842-19.448t-13.307-13.307q-0.512,0-35.314,20.472-1.023,1.023-1.023,2.047 0,7.165 14.33,39.408-5.118,7.165-8.7,14.842-42.479,4.094-42.479,8.7l0,39.92q0,4.606 42.479,8.7 3.582,8.189 8.7,14.842-14.33,32.243-14.33,39.408 0,1.023 1.023,2.047 1.023,0.512 10.236,5.63t 16.889,9.724 8.7,4.606q 2.047,0 13.307-13.307t 14.842-19.448q 5.63,0.512 8.7,0.512t 8.7-0.512q 14.33,20.472 26.102,31.731l 1.535,0.512q 1.023,0 35.314-19.96 1.023-1.023 1.023-2.047 0-7.165-14.33-39.408 4.606-6.653 8.7-14.842 42.479-4.094 42.479-8.7z m0,292.235l0-39.92q0-4.606-42.479-8.7-3.582-7.677-8.7-14.842 14.33-32.243 14.33-39.408 0-1.023-1.023-2.047-34.802-20.472-35.314-20.472-2.047,0-13.307,13.307t-14.842,19.448q-5.63-0.512-8.7-0.512t-8.7,0.512q-4.094-6.141-14.842-19.448t-13.307-13.307q-0.512,0-35.314,20.472-1.023,1.023-1.023,2.047 0,7.165 14.33,39.408-5.118,7.165-8.7,14.842-42.479,4.094-42.479,8.7l0,39.92q0,4.606 42.479,8.7 3.582,8.189 8.7,14.842-14.33,32.243-14.33,39.408 0,1.023 1.023,2.047 1.023,0.512 10.236,5.63t 16.889,9.724 8.7,4.606q 2.047,0 13.307-13.307t 14.842-19.448q 5.63,0.512 8.7,0.512t 8.7-0.512q 14.33,20.472 26.102,31.731l 1.535,0.512q 1.023,0 35.314-19.96 1.023-1.023 1.023-2.047 0-7.165-14.33-39.408 4.606-6.653 8.7-14.842 42.479-4.094 42.479-8.7z" horiz-adv-x="548.352" data-tags="iflow" />
<glyph unicode="&#x2e;" d="M 239.104,232.704l-229.888,107.52 0,55.808 457.216,0 0-55.808z m0-62.976l 227.328,107.52 0-223.744-457.216,0 0,224.256z" horiz-adv-x="475.136" data-tags="nachricht" />
<glyph unicode="&#x2f;" d="M 367.616,393.472q 16.384-16.384 24.064-32.768t 7.68-24.576l0-8.192-129.024-129.024-148.48-147.456-121.856-26.624 25.6,122.88 148.48,147.456 129.024,129.024q 27.648,6.144 64.512-30.72z m-252.928-327.68l 12.288,12.288q-1.024,22.528-26.624,48.128-11.264,11.264-23.040,17.92t-17.92,6.656l-7.168,1.024-11.264-12.288-9.216-40.96q 14.336-8.192 23.552-17.408 12.288-12.288 18.432-24.576z" horiz-adv-x="399.36" data-tags="editieren" />
<glyph unicode="&#x30;" d="M 238.080,453.376q 94.72,0 161.792-67.072t 67.072-161.792-67.072-161.792-161.792-67.072-161.792,67.072-67.072,161.792 67.072,161.792 161.792,67.072z m-35.84-334.336l 178.176,178.176-40.448,40.448-137.728-137.216-64.512,64.512-40.448-39.936z" horiz-adv-x="475.136" data-tags="erledigt" />
<glyph unicode="&#x31;" d="M 215.040,439.552q 89.088,0 152.064-62.976t 62.976-152.064-62.976-152.064-152.064-62.976-152.064,62.976-62.976,152.064 62.976,152.064 152.064,62.976z m 26.624-240.64l 102.4,0 0,52.224-102.4,0 0,103.424-52.224,0 0-103.424-103.424,0 0-52.224 103.424,0 0-103.424 52.224,0 0,103.424z" horiz-adv-x="430.080" data-tags="hinzufuegen" />
<glyph unicode="&#x32;" d="M0,56.064l 237.056,237.056q-12.8,34.816-5.12,74.24t 36.864,68.608 68.096,36.864 74.752-5.12l-82.944-82.944 23.040-59.904 58.88-23.040 83.968,83.968q 12.8-35.84 4.608-75.264t-36.864-68.096-68.096-36.864-75.264,4.608l-237.056-237.056z m 57.856-1.024q0-10.24 7.168-16.896t 16.896-7.168 16.896,7.168 7.168,16.896-7.168,16.896-16.896,7.168-16.896-7.168-7.168-16.896z" horiz-adv-x="502.784" data-tags="einstellungen" />
<glyph unicode="&#x33;" d="M 238.080,453.376q 94.72,0 161.792-67.072t 67.072-161.792-67.072-161.792-161.792-67.072-161.792,67.072-67.072,161.792 67.072,161.792 161.792,67.072z m-85.504-343.040l 228.352,114.688-228.352,114.176 0-228.864z" horiz-adv-x="475.136" data-tags="starten" />
<glyph unicode="&#x34;" d="M 212.992,438.016q 88.576,0 151.040-62.464t 62.976-150.528-62.976-150.528-151.040-62.464-150.528,62.464-62.464,150.528 62.464,150.528 150.528,62.464z m 99.328-274.432l-61.44,61.44 61.44,61.44q 7.68,7.68 7.68,18.432t-7.68,18.432-18.944,7.68-18.944-7.68l-61.44-60.928-60.928,60.928q-7.68,7.68-18.944,7.68t-18.944-7.68-7.68-18.432 7.68-18.432l 60.928-61.44-60.928-61.44q-7.68-7.68-7.68-18.432t 7.68-18.432q 8.192-8.192 18.432-8.192 10.752,0 19.456,8.192l 60.928,60.928 61.44-60.928q 8.192-8.192 18.432-8.192 10.752,0 19.456,8.192 7.68,7.68 7.68,18.432t-7.68,18.432z" horiz-adv-x="427.008" data-tags="entfernen" />
<glyph unicode="&#x35;" d="M0,135.424l0,156.16 512,0 0-156.16-78.848,0 28.16-136.192-410.112,0 28.16,136.192-78.848,0z m 16.896,184.832l 119.808,51.2 19.968,0 0,77.824 198.144,0 0-77.824 19.968,0 119.808-51.2-478.208,0z m 67.072-283.136l 344.064,0-39.936,195.072-264.192,0z" data-tags="drucken" />
<glyph unicode="&#x36;" d="M 347.136,118.016q 33.28,0 56.832-23.552t 23.552-56.832-23.552-56.832-56.832-23.552q-25.6,0-46.592,14.848t-29.184,38.912l-84.48,0q-55.296,0-94.208,38.912t-39.424,94.208l0,191.488q-23.040,8.192-37.888,29.184t-14.848,46.592q0,33.28 23.552,56.832t 56.832,23.552 56.832-23.552 23.552-56.832q0-25.6-14.848-46.592t-37.888-29.184l0-4.608q0-33.28 23.552-56.832t 56.832-23.552l 84.48,0q 8.192,23.040 29.184,37.888t 46.592,14.848q 33.28,0 56.832-23.552t 23.552-56.832-23.552-56.832-56.832-23.552q-25.6,0-46.592,14.848t-29.184,37.888l-84.48,0q-43.008,0-79.872,27.648l0-80.896q0-33.28 23.552-56.832t 56.832-23.552l 84.48,0q 8.192,23.040 29.184,37.888t 46.592,14.848z m0,133.632q-10.752,0-18.944-8.192t-8.192-18.944 8.192-18.944 18.944-8.192 18.432,8.192 7.68,18.944-7.68,18.944-18.432,8.192z m-266.752,186.368q-10.752,0-18.944-7.68t-8.192-18.432 8.192-18.944 18.944-8.192 18.944,8.192 8.192,18.944-8.192,18.432-18.944,7.68z m 266.752-426.496q 10.752,0 18.432,7.68t 7.68,18.432-7.68,18.944-18.432,8.192-18.944-8.192-8.192-18.944 8.192-18.432 18.944-7.68z" horiz-adv-x="427.008" data-tags="ueberweisen" />
<glyph unicode="&#x37;" d="M 373.248,113.408q 23.552-8.192 38.912-29.184t 14.848-46.592q0-33.28-23.552-56.832t-56.832-23.552-56.832,23.552-23.552,56.832q0,25.6 14.848,46.592t 37.888,29.184l0,49.152q0,15.872-11.776,27.648t-28.16,11.776q-40.448,0-67.072,28.16-27.136-28.16-66.56-28.16-15.872,0-27.648-11.776t-11.776-27.648l0-49.152q 23.040-8.192 37.888-29.184t 14.848-46.592q0-33.28-23.552-56.832t-56.832-23.552-56.832,23.552-23.552,56.832q0,25.6 14.848,46.592t 37.888,29.184l0,49.152q0,38.4 27.648,66.048t 66.048,27.648q 16.896,0 28.672,11.776t 11.776,27.648l0,40.448q-23.552,8.192-38.912,29.184t-14.848,46.592q0,33.28 23.552,56.832t 56.832,23.552 56.832-23.552 23.552-56.832q0-25.6-14.848-46.592t-37.888-29.184l0-40.448q0-15.872 11.776-27.648t 28.672-11.776q 38.4,0 65.536-27.648t 27.136-66.048l0-49.152z m-293.376-101.888q 10.752,0 18.944,7.68t 8.192,18.432-8.192,18.944-18.944,8.192-18.944-8.192-8.192-18.944 8.192-18.432 18.944-7.68z m 133.12,426.496q-10.752,0-18.432-7.68t-7.68-18.432 7.68-18.944 18.432-8.192 18.944,8.192 8.192,18.944-8.192,18.432-18.944,7.68z m 133.632-426.496q 10.752,0 18.432,7.68t 7.68,18.432-7.68,18.944-18.432,8.192-18.944-8.192-8.192-18.944 8.192-18.432 18.944-7.68z" horiz-adv-x="427.008" data-tags="erhaltener-workflow" />
<glyph unicode="&#x38;" d="M0-31.488l0,462.848 115.2,0 0-32.768-81.92,0 0-395.776 295.936,0 0,395.776-81.92,0 0,32.768 115.2,0 0-462.848-361.984,0z m 66.048,66.048l0,15.872 15.872,0 0-15.872-15.872,0z m0,61.952l0,15.872 15.872,0 0-15.872-15.872,0z m0,61.952l0,15.872 15.872,0 0-15.872-15.872,0z m0,61.952l0,15.872 15.872,0 0-15.872-15.872,0z m0,61.952l0,15.872 15.872,0 0-15.872-15.872,0z m0,49.152l0,48.128 66.048,0 0,50.176q0,20.992 13.824,35.84t 34.816,14.848 35.328-15.36 14.336-35.328q0-29.184-1.024-50.176l 66.048,0 0-48.128-229.888,0z m 49.152-297.984l0,16.896 180.736,0 0-16.896-180.736,0z m0,61.952l0,16.896 180.736,0 0-16.896-180.736,0z m0,61.952l0,16.896 180.736,0 0-16.896-180.736,0z m0,61.952l0,16.896 180.736,0 0-16.896-180.736,0z m0,61.952l0,16.896 180.736,0 0-16.896-180.736,0z m 50.176,133.12q0-7.168 4.608-11.264t 11.264-4.608 11.264,4.608 4.608,11.264-4.608,11.776-11.264,5.12-11.264-5.12-4.608-11.776z" horiz-adv-x="361.984" data-tags="aufgabe" />
<glyph unicode="&#x39;" d="M0,99.584l0,69.12q0,12.8 9.216,15.872l 88.064,40.96q-33.792,19.968-34.816,67.072 0,29.184 17.92,53.248 18.944,20.992 46.080,22.016 15.872,0 31.744-10.24-25.088-64 11.776-120.832-6.144-6.144-12.8-10.24l-57.856-28.16q-25.088-11.776-27.136-43.008l0-73.216-57.856,0q-12.8,0-13.824,16.896z m 98.816-30.208l0,86.016q0,13.824 10.752,18.944l 77.824,35.84 29.184,13.824q-18.944,11.776-30.72,33.792t-11.264,48.128q0,38.912 23.552,66.56t 56.32,27.648 55.808-27.648 23.040-66.56q0-53.76-39.936-80.896l 31.232-14.848 74.752-35.84q 11.776-5.12 11.776-18.944l0-86.016q-1.024-18.944-18.944-20.992l-276.992,0q-7.168,1.024-11.776,7.168t-5.12,13.824z m 242.176,168.96q 34.816,53.76 10.752,117.76 15.872,10.24 33.792,10.752 25.088,0 46.080-22.016 17.92-20.992 17.92-53.248 0-41.984-32.768-67.072l 86.016-40.96q 9.216-5.12 9.216-15.872l0-69.12q0-15.872-13.824-16.896l-59.904,0 0,73.216q0,29.184-26.112,43.008l-55.808,27.136q-8.192,4.096-14.848,12.8z" data-tags="arbeitsraum" />
<glyph unicode="&#x3a;" d="M 293.376,64.256q0-11.776-7.168-19.456t-18.944-7.68q-10.752,0-19.456,8.192l-86.528,86.528-161.28-120.832 120.832,161.28-86.528,86.528q-12.288,12.288-5.632,28.672 7.168,16.896 24.576,16.896 80.896,0 138.24,28.672 46.080,23.040 77.312,87.552 4.608,12.288 18.432,16.384t 25.6-6.656l 106.496-107.008q 10.752-11.776 7.168-25.6t-15.872-18.432q-65.536-32.256-88.576-77.312-28.672-56.32-28.672-137.728z" horiz-adv-x="427.008" data-tags="anschlagbrett" />
<glyph unicode="&#x3b;" d="M0-31.488l0,418.816 95.744,93.184 265.728,0 0-178.176-44.032,0 0,133.12-188.928,0 0-79.872-84.992,0 0-342.016 214.016,0 0-45.056-258.048,0z m 190.976,105.984l0,82.944 107.008,0 0,105.984 81.92,0 0-105.984 105.984,0 0-82.944-105.984,0 0-105.984-81.92,0 0,105.984-107.008,0z" horiz-adv-x="485.888" data-tags="doc-new" />
<glyph unicode="&#x3c;" d="M 0.512,203.52q-1.024,6.144 3.584,10.752t 11.264,6.144l 46.080,8.192q 7.168,1.024 12.8-2.56t 7.168-10.24-3.584-11.776-12.288-6.656l-45.056-7.168q-7.168-1.024-12.8,2.56t-7.168,10.752z m 1.024,128.512q-3.072,6.656 0,12.288t 9.728,8.192 13.312-2.048l 41.984-17.92q 7.168-3.072 10.24-9.216t0-11.776-9.728-8.192-13.312,0l-41.984,19.968q-7.168,2.048-10.24,8.704z m 81.92,105.984q 1.024,6.656 7.168,10.752 5.12,3.072 11.264,1.024t 10.752-8.192l 25.088-38.912q 4.096-6.144 3.072-12.8t-6.144-10.24-11.264-1.536-10.752,7.68l-26.112,38.912q-4.096,7.168-3.072,13.312z m 29.184-123.392q 9.216,19.968 25.088,33.792t 38.4,20.992 48.64,7.168l 2.048,0q 26.112,0 48.128-7.168t 38.4-20.992 25.6-33.792q 22.016-53.248-8.192-116.224-10.752-22.016-24.064-47.104-7.168-12.8-12.288-37.376t-8.704-31.744q-2.048-6.144-8.192-7.168l-103.936,0q-6.144,1.024-9.216,7.168-14.848,56.832-19.968,69.12-12.8,25.088-24.064,47.104-30.208,67.072-8.192,116.224z m 51.2-318.976q0,4.096 2.56,6.656t 6.656,2.56l 107.008,0q 3.072,0 5.632-2.56t 2.56-6.656l0-17.92q0-4.096-2.56-6.656t-5.632-2.56l-107.008,0q-9.216,0-9.216,9.216l0,17.92z m0,34.816l0,17.92q0,9.216 9.216,9.216l 107.008,0q 3.072,0 5.632-2.56t 2.56-6.656l0-17.92q0-4.096-2.56-6.656t-5.632-2.56l-107.008,0q-4.096,0-6.656,2.56t-2.56,6.656z m 48.128,386.048l0,46.080q0,8.192 4.096,12.8t 10.752,5.12q 6.144,0 10.752-5.12t 4.608-12.8l0-46.080q0-7.168-4.608-11.776t-10.752-5.12q-7.168,0-10.752,5.12t-4.096,11.776z m 98.816-27.136q-1.024,7.168 3.072,12.8l 25.088,38.912q 5.12,6.144 10.752,8.192t 11.776-1.024q 5.12-4.096 6.144-10.752t-3.072-13.312l-25.088-38.912q-5.12-6.144-10.752-7.68t-11.264,1.536-6.656,10.24z m 59.904-173.568q 1.024,6.656 6.656,10.24t 12.288,2.56l 46.080-8.192q 7.168-1.024 11.264-6.144t 3.584-10.752q-1.024-7.168-6.656-10.752t-13.312-2.56l-46.080,7.168q-7.168,1.024-10.752,6.656t-3.072,11.776z m 4.608,95.744q-2.56,6.144 0.512,11.776t 9.216,9.216l 43.008,17.92q 6.144,4.096 12.288,2.048t 9.728-8.192 0-12.288-10.24-8.704l-41.984-19.968q-7.168-2.048-13.312,0t-9.216,8.192z" horiz-adv-x="451.072" data-tags="fokus" />
<glyph unicode="&#x3d;" d="M0,16.64l0,463.872 311.808,0 0-512-156.16,156.16-156.16-156.16 0,48.128z" horiz-adv-x="311.808" data-tags="merkliste" />
<glyph unicode="&#x3e;" d="M 437.76,320.256q 42.496-60.416 42.496-135.68 0-99.328-70.656-169.472t-169.472-70.656-169.472,70.656-70.656,169.472q0,92.16 61.44,160.256t 152.576,77.824l0,0.512-0.512,1.536 0,26.112-26.112,0q-10.752,0-18.944,8.192t-8.192,18.944 8.192,18.944 18.944,8.192l 106.496,0q 10.752,0 18.944-8.192t 8.192-18.944-8.192-18.944-18.944-8.192l-26.112,0 0-26.112-0.512-0.512 0-1.536q 79.872-9.216 138.24-64 0.512,0.512 1.536,2.048t 1.536,2.048l 13.312,13.312q 7.68,7.68 18.944,7.68t 18.944-7.68 7.68-18.944-7.68-18.944l-13.312-13.312q-2.56-2.56-7.68-5.12z m-197.632-322.56q 77.312,0 132.096,54.784t 54.784,132.096-54.784,132.096-132.096,54.272-132.096-54.272-54.784-132.096 54.784-132.096 132.096-54.784z m 27.136,212.992l 53.248,0q 10.752,0 18.944-7.68t 8.192-18.432-8.192-18.944-18.944-8.192l-79.872,0q-10.752,0-18.944,8.192t-8.192,18.944l0,79.872q0,10.752 8.192,18.432t 18.944,7.68 18.944-7.68 8.192-18.432l0-53.76z m-27.136,133.632q 66.048,0 113.152-47.104t 47.104-113.152-47.104-113.152-113.152-47.104-113.152,47.104-47.104,113.152 47.104,113.152 113.152,47.104z m0-293.888q 55.296,0 94.208,39.424t 38.912,94.208-38.912,94.208-94.208,38.912-94.208-38.912-38.912-94.208 38.912-94.208 94.208-39.424z" horiz-adv-x="480.256" data-tags="zeiterfassung" />
<glyph unicode="&#x3f;" d="M0,120.576l0,278.016q0,15.872 7.168,27.136 14.848,23.040 52.736,39.424t 59.392,4.608l 241.152-123.904 0-302.080-44.032-24.064 0,302.080-215.040,115.2q-14.848,5.12-33.28-4.608t-29.696-24.576l 240.128-138.24 0-270.848-44.032-24.064z" horiz-adv-x="359.936" data-tags="buch" />
<glyph unicode="&#x40;" d="M0,48.384l0,159.744 139.776,192 231.936,0 139.776-192 0-159.744-512,0z m 39.936,159.744l 88.064,0 64-64 128,0 64,64 88.064,0-118.784,159.744-194.048,0z" data-tags="eingangskorb" />
<glyph unicode="&#x42;" d="M 232.448,460.032q 97.28,1.024 166.912-66.56t 71.68-164.864q 1.024-97.28-67.072-167.424t-165.376-72.192q-97.28-1.024-167.424,67.072t-71.168,165.376q-2.048,97.28 66.56,167.424t 165.888,71.168z m-1.024-378.88q 15.36,0 25.088,9.728t 9.728,24.064q 1.024,15.36-8.704,25.088t-25.088,9.728l-1.024,0q-14.336,0-24.064-9.216t-10.752-23.552q0-15.36 9.728-25.088t 24.064-10.752l 1.024,0z m 84.992,167.936q 13.312,17.408 13.312,39.936 0,39.936-27.648,59.392-26.624,19.456-68.608,19.456-32.768,0-53.248-13.312-34.816-21.504-36.864-74.752l0-2.048 56.32,0 0,2.048q0,13.312 8.192,27.648 8.192,12.288 27.648,12.288 20.48,0 26.624-10.24 8.192-10.24 8.192-22.528 0-9.216-8.192-20.48-4.096-6.144-10.24-10.24l-3.072-2.048q-3.072-2.048-8.192-5.632t-10.24-7.68-10.752-8.704-8.704-8.704q-7.168-10.24-9.216-39.936l0-4.096 55.296,0 0,2.048q0,6.144 2.048,14.336 3.072,10.24 14.336,18.432l 14.336,9.216q 23.552,17.408 28.672,25.6z" horiz-adv-x="471.040" data-tags="information" />
<glyph unicode="&#x43;" d="M 475.648,206.080q-43.52,67.584-109.056,100.864 17.408-29.696 17.408-64.512 0-52.736-37.376-90.624t-90.624-37.376-90.624,37.376-37.376,90.624q0,34.816 17.408,64.512-65.536-33.28-109.056-100.864 37.888-58.368 95.232-93.184t 123.904-34.816 123.904,34.816 95.232,93.184z m-205.824,109.568q0,5.632-4.096,9.728t-9.728,4.096q-35.84,0-61.44-25.6t-25.6-61.44q0-5.632 4.096-9.728t 9.728-4.096 9.728,4.096 4.096,9.728q0,24.576 17.408,41.984t 41.984,17.408q 5.632,0 9.728,4.096t 4.096,9.728z m 242.176-109.568q0-9.728-5.632-19.968-39.936-65.536-107.52-105.472t-142.848-39.424-142.848,39.936-107.52,104.96q-5.632,10.24-5.632,19.968t 5.632,19.968q 39.936,65.536 107.52,104.96t 142.848,39.936 142.848-39.936 107.52-104.96q 5.632-10.24 5.632-19.968z" data-tags="beobachten" />
<glyph unicode="&#x44;" d="M 384,76.032l0,28.672 51.2,41.984 0-96.256q0-10.24-7.68-17.92t-17.92-7.68l-384,0q-10.24,0-17.92,7.68t-7.68,17.92l0,281.6q0,11.264 7.168,18.432t 18.432,7.168l 147.456,0q-16.384-12.288-30.208-25.088t-19.968-19.968l-5.12-6.144-66.56,0 0-230.4 332.8,0z m-41.984,178.176q-84.992,0-123.904-20.992t-81.92-92.672q0,4.096 0.512,11.264t 4.608,28.672 11.264,40.448 22.528,42.496 35.84,40.448 54.784,28.672 76.288,11.776l0,79.872 169.984-128-169.984-133.12 0,91.136z" data-tags="export" />
<glyph unicode="&#x45;" d="M 583.237,241.166q0-60.142-37.708-111.692t-102.623-81.144-141.286-29.594q-58.233,0-111.692,18.615l 0.955-1.432-170.402-51.073q 21.002,28.162 33.89,60.619t 15.274,50.596l 1.909,18.138q-50.596,57.278-50.596,126.966 0,60.142 37.708,111.215t 102.623,80.667 141.286,29.594 141.286-29.594 102.623-80.667 37.708-111.215z" horiz-adv-x="603.648" data-tags="bemerkung" />
<glyph unicode="&#x46;" d="M 430.080,352.512l0-25.6-356.352,0 0,25.6q0,11.264 6.656,17.92t 12.8,7.68l 311.296,0q 3.072,0 7.168-0.512t 11.264-7.168 7.168-17.92z m-75.776,76.8q 3.072,0 7.168-0.512t 11.264-7.168 7.168-17.92l-254.976,0q0,11.264 6.656,17.92t 12.8,7.68l 209.92,0z m 126.976-102.4q 17.408-16.384 19.456-23.552 3.072-9.216 0-27.648l-38.912-230.4q-2.048-11.264-10.24-17.92t-14.336-7.68l-363.52,0q-26.624,0-30.72,25.6-3.072,13.312-19.968,114.176t-19.968,116.224q-5.12,11.264-1.536,22.528t 5.12,13.312 10.752,10.24l 5.12,5.12 15.36,15.36 0-40.96 428.032,0 0,40.96z m-126.976-138.24l0,51.2-35.84,0 0-40.96-133.12,0 0,40.96-34.816,0 0-51.2q0-25.6 24.576-25.6l 153.6,0q 11.264,0 17.92,6.144t 6.656,12.288z" horiz-adv-x="502.272" data-tags="auftragsbox" />
<glyph unicode="&#x47;" d="M 512,434.944l0-421.888q0-18.432-13.312-31.744t-31.744-13.312l-421.888,0q-18.432,0-31.744,13.312t-13.312,31.744l0,421.888q0,18.432 13.312,31.744t 31.744,13.312l 421.888,0q 18.432,0 31.744-13.312t 13.312-31.744z m-144.896-391.68l 69.632,0q0,73.216-28.672,140.288t-77.312,115.712-115.712,77.312-140.288,28.672l0-69.12q 78.848,0 146.432-39.424t 106.496-106.496 39.424-146.944z m-122.88,0l 69.632,0q0,64.512-32.256,119.808t-87.040,87.040-119.808,32.256l0-69.12q 69.632,0 119.296-49.664 49.664-48.64 49.664-119.808z m-78.336,45.056q0,18.944-13.312,32.256t-32.256,13.312q-18.432,0-31.744-13.312t-13.312-32.256q0-18.432 13.312-31.744t 31.744-13.312q 18.944,0 32.256,13.312t 13.312,31.744z" data-tags="rss-feed" />
<glyph unicode="&#x48;" d="M 71.168,84.224c 23.040,0 40.448-17.92 40.448-40.448 0-22.016-17.408-39.936-40.448-39.936-22.016,0-39.936,17.92-39.936,39.936 0,22.528 17.92,40.448 39.936,40.448z m 271.36,0c 22.528,0 39.936-17.92 39.936-40.448 0-22.016-17.408-39.936-39.936-39.936s-40.448,17.92-40.448,39.936c0,22.528 17.92,40.448 40.448,40.448z m-244.736,301.568l 289.28,0c 19.456,0 28.16-11.776 28.16-25.6l0-119.808c0-13.312-10.24-24.576-23.552-25.6l-258.56-28.672c-20.992-2.56-23.552-30.208 1.536-30.208l 245.248,0c 28.16,0 28.16-41.472 0-41.472l-250.368,0c-56.32,0-77.312,61.952-33.28,94.72l 22.528,16.896-79.36,173.568-38.912,0c-30.208,0-30.208,46.080 0,46.080l 45.568,0c 23.040,0 29.696-10.752 36.352-27.648z m 176.64-35.84l-66.56,0 13.312-43.52 63.488,0z m-160.256,0l 19.968-43.52 64.512,0-14.336,43.52-70.656,0z m 55.808-123.392l 51.2,5.12-16.896,51.712-60.928,0z m 73.728,7.68l 57.856,5.632-12.8,43.52-60.928,0z m 136.192,14.848l0,34.816-68.096,0 10.24-40.448z m0,57.856l0,43.52-82.432,0 9.728-43.52 73.216,0z" horiz-adv-x="415.232" data-tags="basket" />
<glyph unicode="&#x49;" d="M 512,96.512l0-36.352q0-7.68-5.632-12.8t-12.8-5.632l-475.648,0q-7.68,0-12.8,5.632t-5.632,12.8l0,36.352q0,7.68 5.632,12.8t 12.8,5.632l 475.648,0q 7.68,0 12.8-5.632t 5.632-12.8z m0,109.568l0-36.352q0-7.68-5.632-12.8t-12.8-5.632l-475.648,0q-7.68,0-12.8,5.632t-5.632,12.8l0,36.352q0,7.68 5.632,12.8t 12.8,5.632l 475.648,0q 7.68,0 12.8-5.632t 5.632-12.8z m0,109.568l0-36.352q0-7.68-5.632-12.8t-12.8-5.632l-475.648,0q-7.68,0-12.8,5.632t-5.632,12.8l0,36.352q0,7.68 5.632,12.8t 12.8,5.632l 475.648,0q 7.68,0 12.8-5.632t 5.632-12.8z m0,109.568l0-36.352q0-7.68-5.632-12.8t-12.8-5.632l-475.648,0q-7.68,0-12.8,5.632t-5.632,12.8l0,36.352q0,7.68 5.632,12.8t 12.8,5.632l 475.648,0q 7.68,0 12.8-5.632t 5.632-12.8z" data-tags="buchblock" />
<glyph unicode="&#x4a;" d="M 166.4,454.912c-31.232,0-56.832-23.040-62.464-52.736-4.608,1.024-9.216,1.536-14.336,1.536-35.328,0-64-28.672-64-64 0-16.384 6.144-31.232 15.872-42.496-24.064-9.216-41.472-32.768-41.472-59.904 0-35.328 25.6-64 64-64l 12.8,0 51.2-89.6 0-64c0-12.8 12.8-25.6 25.6-25.6l 25.6,0c 12.8,0 25.6,12.8 25.6,25.6l0,64 51.2,89.6 18.432,0.512c 32.768-0.512 58.368,30.208 58.368,63.488 0,27.648-17.408,50.688-41.472,59.904 10.24,11.264 15.872,26.112 15.872,42.496 0,35.328-28.672,64-64,64-5.12,0-9.728-0.512-14.336-1.536-5.12,29.696-30.72,52.736-62.464,52.736z m-38.4-281.6l 76.8,0-25.6-51.2-25.6,0-25.6,51.2z" horiz-adv-x="332.8" data-tags="ornungssystem" />
<glyph unicode="&#x4b;" d="M 109.056,17.664q0-23.040-15.36-35.84t-38.912-13.312q-30.208,0-49.152,18.944l 16.384,25.088q 13.824-12.8 30.208-12.8 8.192,0 14.336,4.096t 6.144,12.288q0,18.432-30.208,15.872l-7.68,15.872q 2.048,3.072 9.216,12.288t 12.288,15.36 10.752,10.752l0,0.512q-4.608,0-13.824-0.512t-13.824-0.512l0-15.36-30.208,0 0,43.52 95.232,0 0-25.088-27.136-32.768q 14.336-3.584 23.040-13.824t 8.704-25.088z m 0.512,179.2l0-45.568-103.424,0q-1.536,10.24-1.536,15.36 0,14.336 6.656,26.624t 16.384,19.456 18.944,13.824 16.384,12.288 6.656,12.8q0,7.168-4.096,10.752t-11.264,4.096q-13.312,0-23.040-16.384l-24.064,16.896q 6.656,14.336 20.48,22.528t 30.208,8.192q 20.992,0 35.328-11.776t 14.336-32.256q0-14.336-9.728-26.112t-21.504-18.432-21.504-14.336-10.24-14.848l 36.352,0 0,16.896 30.208,0z m 402.432-91.136l0-54.784q0-3.584-2.56-6.656t-6.656-2.56l-347.648,0q-3.584,0-6.656,2.56t-2.56,6.656l0,54.784q0,4.096 2.56,6.656t 6.656,2.56l 347.648,0q 3.584,0 6.656-2.56t 2.56-6.656z m-402.432,257.024l0-28.16-95.744,0 0,28.16 30.72,0q0,11.776 0,34.816t0,34.816l0,3.584-0.512,0q-2.048-4.608-14.336-15.36l-20.48,21.504 38.912,36.352 30.208,0 0-115.2 30.72,0z m 402.432-110.592l0-54.784q0-3.584-2.56-6.656t-6.656-2.56l-347.648,0q-3.584,0-6.656,2.56t-2.56,6.656l0,54.784q0,4.096 2.56,6.656t 6.656,2.56l 347.648,0q 3.584,0 6.656-2.56t 2.56-6.656z m0,146.432l0-54.784q0-3.584-2.56-6.656t-6.656-2.56l-347.648,0q-3.584,0-6.656,2.56t-2.56,6.656l0,54.784q0,3.584 2.56,6.656t 6.656,2.56l 347.648,0q 3.584,0 6.656-2.56t 2.56-6.656z" data-tags="traktandenliste" />
<glyph unicode="&#x4c;" d="M 146.286,87.296l0,54.784q0,4.096-2.56,6.656t-6.656,2.56l-91.648,0q-4.096,0-6.656-2.56t-2.56-6.656l0-54.784q0-4.096 2.56-6.656t 6.656-2.56l 91.648,0q 4.096,0 6.656,2.56t 2.56,6.656z m0,109.568l0,54.784q0,4.096-2.56,6.656t-6.656,2.56l-91.648,0q-4.096,0-6.656-2.56t-2.56-6.656l0-54.784q0-4.096 2.56-6.656t 6.656-2.56l 91.648,0q 4.096,0 6.656,2.56t 2.56,6.656z m 146.432-109.568l0,54.784q0,4.096-2.56,6.656t-6.656,2.56l-91.648,0q-4.096,0-6.656-2.56t-2.56-6.656l0-54.784q0-4.096 2.56-6.656t 6.656-2.56l 91.648,0q 4.096,0 6.656,2.56t 2.56,6.656z m-146.432,219.648l0,54.784q0,4.096-2.56,6.656t-6.656,2.56l-91.648,0q-4.096,0-6.656-2.56t-2.56-6.656l0-54.784q0-4.096 2.56-6.656t 6.656-2.56l 91.648,0q 4.096,0 6.656,2.56t 2.56,6.656z m 146.432-109.568l0,54.784q0,4.096-2.56,6.656t-6.656,2.56l-91.648,0q-4.096,0-6.656-2.56t-2.56-6.656l0-54.784q0-4.096 2.56-6.656t 6.656-2.56l 91.648,0q 4.096,0 6.656,2.56t 2.56,6.656z m 146.432-109.568l0,54.784q0,4.096-2.56,6.656t-6.656,2.56l-91.648,0q-4.096,0-6.656-2.56t-2.56-6.656l0-54.784q0-4.096 2.56-6.656t 6.656-2.56l 91.648,0q 4.096,0 6.656,2.56t 2.56,6.656z m-146.432,219.648l0,54.784q0,4.096-2.56,6.656t-6.656,2.56l-91.648,0q-4.096,0-6.656-2.56t-2.56-6.656l0-54.784q0-4.096 2.56-6.656t 6.656-2.56l 91.648,0q 4.096,0 6.656,2.56t 2.56,6.656z m 146.432-109.568l0,54.784q0,4.096-2.56,6.656t-6.656,2.56l-91.648,0q-4.096,0-6.656-2.56t-2.56-6.656l0-54.784q0-4.096 2.56-6.656t 6.656-2.56l 91.648,0q 4.096,0 6.656,2.56t 2.56,6.656z m0,109.568l0,54.784q0,4.096-2.56,6.656t-6.656,2.56l-91.648,0q-4.096,0-6.656-2.56t-2.56-6.656l0-54.784q0-4.096 2.56-6.656t 6.656-2.56l 91.648,0q 4.096,0 6.656,2.56t 2.56,6.656z m 36.352,91.648l0-310.784q0-18.944-13.312-32.256t-32.256-13.312l-384,0q-18.944,0-32.256,13.312t-13.312,32.256l0,310.784q0,18.944 13.312,32.256t 32.256,13.312l 384,0q 18.944,0 32.256-13.312t 13.312-32.256z" horiz-adv-x="475.136" data-tags="tabelle" />
<glyph unicode="&#x4d;" d="M 219.611,380.16q-42.496,0-77.824-20.992t-56.32-56.32-20.992-77.824 20.992-77.824 56.32-56.32 77.824-20.992 77.824,20.992 56.32,56.32 20.992,77.824-20.992,77.824-56.32,56.32-77.824,20.992z m 219.648-155.648q0-59.904-29.184-110.080t-79.872-79.872-110.080-29.184-110.080,29.184-79.872,79.872-29.184,110.080 29.184,110.080 79.872,79.872 110.080,29.184 110.080-29.184 79.872-79.872 29.184-110.080z" horiz-adv-x="438.784" data-tags="status-bearbeitung-notwendig" />
<glyph unicode="&#x4e;" d="M 475.502,166.656q0-23.040-12.8-38.4t-35.328-15.36q-11.776,0-22.016,5.12t-16.896,10.752-16.384,10.752-20.48,5.12q-31.232,0-31.232-35.328 0-11.264 4.608-32.768t 4.096-32.768l0-1.536q-6.144,0-9.216-0.512-9.728-1.024-27.648-3.072t-32.768-4.096-28.16-1.536q-17.408,0-29.184,7.68t-11.776,24.064q0,10.752 5.12,20.48t 10.752,16.384 10.752,16.896 5.12,22.016q0,22.528-15.36,35.328t-38.4,12.8q-24.064,0-40.96-12.8t-16.896-36.352q0-12.288 4.096-23.552t 9.728-18.432 9.728-15.36 4.096-14.336q0-12.8-13.312-25.6-10.752-10.24-33.28-10.24-27.136,0-70.144,6.656-2.56,0.512-7.68,1.024t-7.68,1.024l-3.584,0.512q-0.512,0-1.024,0.512-0.512,0-0.512,0.512l0,292.352q 0.512-0.512 5.12-1.024t 9.728-1.536 6.144-1.024q 43.008-6.656 70.144-6.656 23.040,0 33.28,10.24 13.312,12.8 13.312,25.6 0,6.144-4.096,14.336t-9.728,15.36-9.728,18.432-4.096,23.552q0,23.552 16.896,36.352t 40.96,12.8q 23.040,0 38.4-12.8t 15.36-35.328q0-11.776-5.12-22.016t-10.752-16.896-10.752-16.384-5.12-20.48q0-16.384 11.776-24.064t 29.184-7.68q 18.432,0 51.2,4.096t 46.592,4.608l0-0.512q-0.512-0.512-1.024-5.12t-1.536-9.728-1.024-6.144q-6.656-43.008-6.656-70.144 0-23.040 10.24-33.28 12.8-13.312 25.6-13.312 6.144,0 14.336,4.096t 15.36,9.728 18.432,9.728 23.552,4.096q 23.552,0 36.352-16.896t 12.8-40.96z" horiz-adv-x="475.136" data-tags="fokuseintrag" />
<glyph unicode="&#x4f;" d="M 466.286,206.080q0-7.68-5.632-12.8t-12.8-5.632l-64,0q0-48.64-18.944-82.944l 59.392-59.904q 5.632-5.632 5.632-12.8t-5.632-12.8q-5.12-5.632-12.8-5.632t-12.8,5.632l-56.32,56.32q-1.536-1.536-4.096-3.584t-11.776-8.192-18.432-10.24-23.552-8.192-27.648-3.584l0,256-36.352,0 0-256q-14.336,0-29.184,4.096t-25.088,9.216-18.944,11.264-12.288,9.216l-4.096,4.096-52.224-59.392q-5.632-6.144-13.824-6.144-6.656,0-12.288,4.608-5.632,5.12-5.632,12.8t 4.608,13.312l 57.856,65.024q-16.384,32.768-16.384,78.336l-64,0q-7.68,0-12.8,5.632t-5.632,12.8 5.632,12.8 12.8,5.632l 64,0 0,83.968-49.664,49.664q-5.632,5.632-5.632,12.8t 5.632,12.8 12.8,5.632 12.8-5.632l 49.664-49.664 241.152,0 49.664,49.664q 5.632,5.632 12.8,5.632t 12.8-5.632 5.632-12.8-5.632-12.8l-49.664-49.664 0-83.968 64,0q 7.68,0 12.8-5.632t 5.632-12.8z m-137.216,164.352l-182.784,0q0,37.888 26.624,64.512t 64.512,26.624 64.512-26.624 26.624-64.512z" horiz-adv-x="475.136" data-tags="bugtracker" />
<glyph unicode="&#x50;" d="M 512,434.944l0-421.888q0-18.432-13.312-31.744t-31.744-13.312l-421.888,0q-18.432,0-31.744,13.312t-13.312,31.744l0,421.888q0,18.432 13.312,31.744t 31.744,13.312l 421.888,0q 18.432,0 31.744-13.312t 13.312-31.744z m-95.744-81.92l 10.24,60.416q-22.016,7.68-73.216,7.68-40.448,0-62.976-29.696-13.312-17.408-13.312-60.928l0-39.936-40.448,0 0-58.88 40.448,0 0-204.8 76.288,0 0,204.8 60.416,0 4.608,58.88-65.024,0 0,46.080q0,21.504 30.208,21.504 15.872,0 32.768-5.12z" data-tags="facebook" />
<glyph unicode="&#x51;" d="M 513.536,224q-20.992-23.552-58.368-23.552l-3.072,0q-18.944-77.824-91.136-124.928t-156.16-47.104q-61.952,0-115.712,27.136t-90.112,77.312q 38.4-36.864 92.672-36.864 57.856,0 97.792,42.496-3.072-0.512-6.144-0.512l-18.432,4.096q-12.288,6.144-12.288,17.92 0,13.824 20.992,23.040-5.12-0.512-9.728-0.512-14.848,0-27.648,6.144-16.896,8.192-26.112,26.112 11.264,12.8 35.328,14.336-50.176,12.288-57.344,52.224 13.824,4.096 27.136,4.096l 4.096,0q-18.944,10.24-31.744,26.624t-12.288,35.84l 0.512,4.096q 79.36-30.208 131.584-59.392 15.36-8.704 38.912-32.256 16.384,44.544 34.816,77.312t 46.080,50.688q-0.512-8.192-7.68-15.872 16.896,16.384 39.936,19.456-1.536-11.776-27.136-20.992 3.584,1.024 13.312,5.12t 16.896,6.144 13.312,2.048q 7.68,0 7.68-5.632 0-4.096-8.704-8.192t-22.016-8.192-14.336-4.608q 5.12,0.512 9.728,0.512 35.328,0 62.976-26.624 30.72-30.72 38.912-73.216 9.216-3.072 18.432-3.072 25.6,0 42.496,9.728-6.656-15.36-22.528-24.064t-34.304-9.728q 17.408-7.68 42.496-7.68 8.192,0 15.872,1.536z" horiz-adv-x="513.536" data-tags="twitter" />
<glyph unicode="&#x52;" d="M 512,434.944l0-421.888q0-18.432-13.312-31.744t-31.744-13.312l-421.888,0q-18.432,0-31.744,13.312t-13.312,31.744l0,421.888q0,18.432 13.312,31.744t 31.744,13.312l 421.888,0q 18.432,0 31.744-13.312t 13.312-31.744z m-121.344-122.368l 61.952,0 0,30.72-61.952,0 0,62.464-30.72,0 0-62.464-62.464,0 0-30.72 62.464,0 0-61.952 30.72,0 0,61.952z m-110.080,83.456q0,5.632-11.264,5.632-1.536,0.512-26.624,0.512l-36.864,0q-12.288,0-31.232-2.048t-30.208-5.632q-29.696-9.728-47.616-31.744t-17.92-52.224q0-35.84 22.528-57.856 22.016-21.504 56.832-21.504l 4.608,0q0-12.288 1.024-17.92t 2.56-6.144 4.096-2.56 4.608-7.68q-28.16,0-52.736-6.144t-44.032-24.576-19.456-46.592q0-39.424 31.744-58.88t 73.728-19.456q 47.104,0 81.92,23.552t 34.816,68.608q0,19.456-10.24,37.376t-22.528,28.16-22.528,19.968-10.24,14.848q0,5.632 7.68,13.312t 17.408,14.848 17.408,24.064 7.68,37.888q0,38.912-22.528,54.784 0.512,0 8.192,1.024t 10.752,1.536 8.704,2.56 8.192,5.12 2.56,8.192z m-69.12-87.040q0-17.92-8.192-30.72t-25.088-12.8q-22.016,0-35.328,23.552t-13.312,47.104q0,17.92 8.192,30.72t 25.088,12.8q 22.016,0 35.328-23.552t 13.312-47.104z m 28.16-176.64q0-22.528-22.016-36.352t-46.080-13.824-44.032,12.288-19.968,34.816q0,24.576 20.992,36.864t 47.104,12.288q 23.552,0 43.52-12.288t 19.968-34.304z" data-tags="googleplus" />
<glyph unicode="&#x53;" d="M 512,107.776q0-57.856-41.984-98.816t-100.352-40.96q-35.328,0-66.56,16.384-23.552-4.096-45.056-4.096-100.352,0-172.544,70.656t-72.192,171.008q0,21.504 5.12,48.128-19.456,32.768-19.456,70.656 0,57.856 41.984,98.816t 100.352,40.96q 41.472,0 75.264-21.504 19.456,3.584 41.472,3.584 66.048,0 122.368-32.256t 89.088-87.552 33.28-121.344q0-28.672-5.632-51.712 14.848-29.696 14.848-61.952z m-111.104,52.224q0,25.6-11.264,44.544t-29.696,29.184-40.448,17.408-44.032,11.776-40.448,9.216-29.696,13.312-11.264,19.968q0,17.408 18.944,25.6t 38.912,8.192q 20.48,0 34.304-6.656t 19.968-15.36 11.264-17.92 12.8-15.36 20.992-6.656q 14.336,0 25.088,9.728t 10.752,23.552-7.68,27.648q-15.36,28.16-49.664,40.96t-72.192,12.8q-23.552,0-46.080-4.608t-43.52-14.848-33.792-29.184-12.8-44.544q0-33.792 20.992-54.784t 50.688-29.184 59.904-14.848 50.688-17.408 20.992-30.208q0-21.504-21.504-32.256t-46.080-10.752q-23.040,0-37.888,7.68t-21.504,18.432-11.776,22.016-13.312,18.944-21.504,7.68q-14.336,0-25.088-9.216t-10.752-23.040q0-21.504 15.872-43.52 36.864-53.248 127.488-53.248 25.6,0 49.664,5.632t 45.568,17.408 34.816,32.768 13.312,48.64z" data-tags="skype" />
<glyph unicode="&#x54;" d="M 512,434.944l0-421.888q0-18.432-13.312-31.744t-31.744-13.312l-421.888,0q-18.432,0-31.744,13.312t-13.312,31.744l0,421.888q0,18.432 13.312,31.744t 31.744,13.312l 421.888,0q 18.432,0 31.744-13.312t 13.312-31.744z m-61.44-84.48q0,47.616-57.344,47.616-37.888,0-71.168-27.136t-45.568-64.512q 6.144,1.024 11.776,1.024 4.096,0 7.68-0.512 9.216-1.024 16.384-3.584t 11.264-10.24 4.096-19.968q0-22.016-19.456-60.928t-38.4-38.912q-9.728,0-18.432,9.728-12.288,12.8-19.456,48.64t-10.24,69.12-15.872,59.904-35.84,26.624q-18.944,0-40.96-13.312t-53.76-41.472-34.816-30.208l0-2.56q 2.56-2.56 5.632-7.68t 6.144-7.168 9.728-2.56q 5.632,0 16.896,3.584t 17.408,3.584q 13.312,0 22.016-20.48 2.56-6.656 6.656-19.456t 5.632-16.896q 7.168-20.48 18.944-66.56l 3.584-13.312 4.096-16.384t 5.12-16.896 6.656-17.92 7.168-16.384 9.216-15.36 10.752-11.264 12.8-8.704 14.848-2.56q 34.304,0 74.24,33.28t 71.168,79.872 53.76,93.696 28.672,76.8q 1.536,9.216 1.536,17.408z" data-tags="vimeo" />
<glyph unicode="&#x55;" d="M 512,434.944l0-421.888q0-18.432-13.312-31.744t-31.744-13.312l-421.888,0q-18.432,0-31.744,13.312t-13.312,31.744l0,421.888q0,18.432 13.312,31.744t 31.744,13.312l 421.888,0q 18.432,0 31.744-13.312t 13.312-31.744z m-233.472-186.368l 93.696,0-0.512,60.928-94.208,0 1.024,92.672-57.344,0q-1.536-34.816-18.944-60.416-1.536-2.56-4.608-8.192t-6.144-9.728-5.632-6.144q-9.728-7.68-38.912-7.68l-7.68,0 0-61.44 46.592-1.536 0-155.136q0-19.968 7.68-33.28t 20.992-19.456 25.6-7.68 28.672-2.048l 23.040,0q 25.6,0 41.472,2.048t 22.016,4.096 13.824,6.144l0,65.536q-27.648-17.92-53.76-17.92-13.824,0-25.088,6.656t-11.264,12.8l0,139.776z" data-tags="tumblr" />
<glyph unicode="&#x56;" d="M 512,434.944l0-421.888q0-18.432-13.312-31.744t-31.744-13.312l-421.888,0q-18.432,0-31.744,13.312t-13.312,31.744l0,421.888q0,18.432 13.312,31.744t 31.744,13.312l 421.888,0q 18.432,0 31.744-13.312t 13.312-31.744z m-169.984-364.544l 66.048,0 0,126.464q0,45.568-20.992,69.12t-54.784,23.552q-24.064,0-40.96-10.752t-25.088-24.064l-1.024,0-3.072,30.208-56.832,0q 1.536-58.368 1.536-68.608l0-145.92 65.536,0 0,123.392q0,10.752 2.048,16.896 10.24,25.088 33.792,25.088 33.28,0 33.28-46.592l0-118.784z m-181.76,297.984q-9.728,9.728-25.088,9.728t-25.088-9.728-9.728-24.064 9.728-24.064 24.576-9.728q 16.384,0 26.112,9.216 9.216,9.216 9.216,22.528 0,15.872-9.728,25.6z m-58.368-297.984l 65.536,0 0,214.528-65.536,0 0-214.528z" data-tags="linkedin" />
<glyph unicode="&#x57;" d="M 413.184,423.68l0-160.256-32.768,0 0,17.92q-18.944-19.968-37.888-19.968-23.040,0-23.040,28.672l0,133.632 32.768,0 0-122.88q0-10.752 8.704-10.752t 19.456,12.288l0,121.344 32.768,0z m-121.344-37.376l0-82.944q0-21.504-12.8-32.768t-34.816-11.264q-20.992,0-34.304,12.288t-13.312,32.768l0,82.944q0,19.968 14.336,30.72t 34.816,10.752q 19.456,0 32.768-11.264t 13.312-30.208z m-33.28-85.504l0,87.552q0,5.12-4.608,8.704t-9.728,3.584-9.216-3.584-4.096-8.704l0-87.552q0-13.312 13.312-13.312 14.336,0 14.336,13.312z m-97.28,179.712l 37.376,0-28.16-84.48q-2.048-6.144-5.12-14.336t-5.632-14.336-4.096-14.336l0-90.112-36.864,0 0,86.016q-1.024,6.144-14.848,43.52l-29.184,87.552 37.376,0 23.552-86.528 2.56,0z m 312.832-378.368q0-25.088-3.072-74.24-2.048-25.6-19.968-40.96t-43.52-16.384q-50.688-2.56-152.064-2.56-101.888,0-152.064,2.56-25.6,1.024-43.52,16.384t-19.968,40.96q-3.072,49.152-3.072,74.24t 3.072,74.24q 2.048,25.6 19.968,40.96t 43.52,16.384q 50.176,2.56 152.064,2.56t 152.064-2.56q 25.6-1.024 43.52-16.384t 19.968-40.96q 3.072-49.152 3.072-74.24z m-36.352-46.592l0,9.728-27.136,0q0-1.024 0.512-6.656t0-8.192-1.536-6.144-3.584-5.12-7.168-1.536q-5.12,0-8.192,3.072t-3.072,6.144-0.512,8.704l0,24.576 50.176,0 0,32.768q0,17.92-9.728,28.16t-27.648,10.24q-17.408,0-29.184-10.752t-11.776-28.16l0-57.856q0-18.432 10.24-29.696t 28.672-11.264q 39.424,0 39.424,40.448z m-97.792-9.728l0,71.68q0,32.256-25.6,32.256-12.8,0-23.552-11.776l0,56.32-26.624,0 0-175.616 26.624,0 0,10.24q 11.264-11.776 25.088-11.776 24.064,0 24.064,28.672z m-128-27.136l 26.112,0 0,129.536-26.112,0 0-98.304q-8.704-9.728-15.872-9.728-6.656,0-6.656,8.704l0,99.328-26.624,0 0-109.056q0-22.528 18.432-22.528 15.36,0 30.72,16.384l0-14.336z m-79.872,150.016l 31.232,0 0,25.6-91.648,0 0-25.6 30.72,0 0-150.016 29.696,0 0,150.016z m 278.528-53.76l0-14.336-23.040,0 0,14.336q0,13.824 11.776,13.824 11.264,0 11.264-13.824z m-97.792,1.536l0-68.096q0-10.752-9.216-10.752-7.168,0-12.8,5.632l0,80.896q 5.12,5.12 11.264,5.12 10.752,0 10.752-12.8z" data-tags="youtube" />
<glyph unicode="&#x58;" d="M 182.711,316.123q0-23.031-15.866-38.897t-38.897-15.866-38.897,15.866-15.866,38.897 15.866,38.897 38.897,15.866 38.897-15.866 15.866-38.897z m 292.235-109.524l0-127.949-402.271,0 0,54.762 91.611,91.611 45.55-45.55 146.373,146.373z m 27.637,201.136l-457.033,0q-3.582,0-6.653-2.559t-2.559-6.653l0-347.509q0-3.582 2.559-6.653t 6.653-2.559l 457.033,0q 3.582,0 6.653,2.559t 2.559,6.653l0,347.509q0,3.582-2.559,6.653t-6.653,2.559z m 45.55-9.212l0-347.509q0-18.936-13.307-32.243t-32.243-13.307l-457.033,0q-18.936,0-32.243,13.307t-13.307,32.243l0,347.509q0,18.936 13.307,32.243t 32.243,13.307l 457.033,0q 18.936,0 32.243-13.307t 13.307-32.243z" horiz-adv-x="548.352" data-tags="bild" />
<glyph unicode="&#x59;" d="M 219.611,444.16q 59.904,0 110.080-29.184t 79.872-79.872 29.184-110.080-29.184-110.080-79.872-79.872-110.080-29.184-110.080,29.184-79.872,79.872-29.184,110.080 29.184,110.080 79.872,79.872 110.080,29.184z m 78.336-148.992q-0.512-0.512-2.56-2.56t-4.096-2.56q 0.512,0 1.536,1.536t 1.536,3.072 1.024,2.048q 1.536,2.048 6.144,4.096 4.096,1.536 14.848,3.584 9.728,2.048 14.336-3.072-0.512,0.512 2.56,3.584t 4.096,3.584q 1.024,0.512 4.096,1.536t 4.096,2.048l 0.512,6.144q-3.584-0.512-5.12,2.048t-2.048,6.144q0-0.512-1.536-2.048 0,2.048-1.536,2.048t-3.072-0.512-2.56-0.512q-3.072,1.024-4.096,2.048t-2.048,4.608-1.024,4.096q-0.512,1.536-2.56,3.072t-2.56,3.072q-0.512,0.512-0.512,1.536t-1.024,2.048-1.024,1.536-1.536,0.512-2.048-1.536-2.048-3.072-1.536-1.536q-1.024,0.512-1.536,0.512t-1.536-0.512-1.536-1.024-1.536-1.024q-1.024-0.512-2.56-1.024t-2.56-0.512q 4.096,1.536-0.512,3.072-3.072,1.024-4.608,1.024 2.56,1.024 2.048,3.584t-2.56,4.096l 1.536,0q-0.512,1.024-2.56,2.56t-5.12,2.56-3.584,1.536q-2.048,1.536-9.728,2.56t-9.216,0q-1.536-1.536-1.536-3.072t 1.024-4.096 1.024-3.584q 0.512-1.536-1.536-3.584t-2.048-3.584q0-2.048 4.096-4.608t 3.072-6.144q-1.024-2.048-4.608-4.608t-4.608-3.584q-1.536-2.048-0.512-5.12t 3.072-4.608q 0.512-0.512 0.512-1.024t-1.024-1.536-1.536-1.024-2.048-1.024l-1.024-0.512q-3.072-1.536-5.632,1.536t-4.096,7.68q-2.048,7.168-4.608,8.704-6.656,2.048-8.192-0.512-1.536,3.584-11.776,7.68-7.168,2.56-16.384,1.024 1.536,0.512 0,4.096-2.048,4.096-5.632,3.584 1.024,1.536 1.024,5.12t 0.512,4.096q 1.024,3.584 3.584,6.656 0.512,0.512 2.048,2.56t 2.56,4.096 0,1.536q 10.24-1.024 14.336,3.072 1.536,1.536 3.072,4.608t 3.072,4.608q 2.56,1.536 4.096,1.536t 4.096-1.536 4.096-1.536q 4.096-0.512 4.608,3.072t-2.048,5.632q 3.584-0.512 1.024,4.608-1.536,2.048-2.048,2.56-3.584,1.024-7.68-1.536-2.048-1.024 0.512-2.048-0.512,0.512-2.56-3.072t-4.608-5.12-4.608,1.536q-0.512,0.512-1.536,4.096t-2.56,4.096q-2.048,0-4.608-4.096 1.024,2.048-3.072,4.096t-6.656,2.048q 5.632,3.584-2.048,7.68-2.048,1.024-5.632,1.536t-5.632-1.024q-1.536-2.048-1.536-3.072t 1.536-2.048 3.072-1.536 3.072-1.024 2.56-1.024q 4.096-3.072 2.048-4.096-0.512-0.512-2.56-1.024t-3.072-1.536-1.536-1.024q-1.024-1.024 0-4.096t-0.512-4.096q-1.536,1.536-2.56,5.12t-2.048,4.608q 2.048-2.56-7.168-1.536l-3.072,0.512q-1.024,0-4.608-0.512t-5.632-0.512-4.096,2.048q-1.024,2.048 0,5.632 0.512,1.024 1.024,0.512-1.024,1.024-3.072,2.56t-3.072,2.56q-13.312-4.096-26.624-11.776 1.536-0.512 3.584,0.512 1.536,0.512 3.584,2.048t 3.072,1.536q 9.728,4.096 11.776,2.048l 1.536,1.536q 4.096-4.608 5.632-7.168-2.048,1.024-8.704,0.512-5.632-1.536-6.144-3.584 2.048-3.584 1.536-5.12-1.024,1.024-3.072,3.072t-4.096,3.072-4.096,1.536q-4.608,0-6.144-0.512-41.472-23.040-67.072-63.488 2.048-2.048 3.584-2.048 1.024-0.512 1.536-2.56t 0.512-3.072 3.072,1.024q 2.56-2.048 1.024-5.632 0.512,0.512 12.8-7.68 5.632-4.608 6.144-6.144 1.024-3.072-3.072-5.12-0.512,0.512-2.56,2.56t-2.56,1.024q-1.024-1.536 0-5.12t 3.072-3.584q-2.048,0-2.56-4.608t-0.512-10.24-0.512-6.656l 0.512-0.512q-1.024-3.584 1.536-9.728t 6.144-5.632q-3.584-1.024 5.632-12.288 1.536-2.048 2.048-2.56 1.024-0.512 3.584-2.048t 4.096-3.072 3.072-3.072q 1.024-1.536 3.072-6.656t 4.096-6.656q-0.512-1.536 2.56-5.632t 3.072-6.656q-0.512,0-0.512-0.512t-0.512-0.512q 1.024-2.048 4.608-4.096t 4.608-3.584q 0.512-1.024 0.512-3.072t 1.024-3.072 2.048-0.512q 0.512,5.632-6.656,17.92-4.096,7.168-4.608,8.192-1.024,1.536-1.536,4.608t-1.536,4.096q 0.512,0 1.536-0.512t 2.56-1.024 2.048-1.024 0.512-1.024q-1.024-2.048 0.512-5.12t 3.584-5.12 4.608-5.632 3.584-3.584q 1.536-1.536 4.096-5.632t0-4.096q 2.56,0 5.632-3.072t 4.608-5.632q 1.536-2.048 2.048-7.68t 1.536-6.656q 0.512-2.048 2.56-4.096t 3.584-2.56l 4.608-2.048t 3.584-2.048q 1.536-0.512 5.12-3.072t 6.144-3.072q 3.072-1.024 4.608-1.024t 4.096,0.512 4.096,1.024q 4.096,0.512 8.192-4.096t 6.144-6.144q 10.24-5.632 15.872-3.072-0.512-0.512 0-2.048t 2.048-4.608 2.56-4.096 1.536-2.56q 1.536-1.536 5.12-4.096t 5.12-4.096q 1.536,1.024 2.048,2.56-1.024-2.048 2.048-5.632t 5.12-3.072q 4.096,1.024 4.096,9.216-8.704-4.096-13.824,5.12 0,0.512-0.512,1.536t-1.024,2.56-0.512,2.56 0,2.048 1.536,1.024q 2.56,0 3.072,1.024t-0.512,3.584-1.024,3.584q-0.512,2.048-3.072,5.632t-3.584,4.096q-1.536-2.56-4.608-2.048t-4.608,2.56q0-0.512-0.512-1.536t-0.512-2.048q-3.584,0-4.096,0.512 0.512,1.024 0.512,5.12t 1.024,6.656q 0.512,1.024 1.536,3.584t 2.048,4.096 1.024,3.584-1.536,2.56-5.12,0.512q-5.632-0.512-7.68-5.632-0.512-1.024-1.024-3.072t-1.536-3.072-2.56-2.048q-2.048-1.024-6.656-0.512t-6.656,1.536q-3.584,2.048-6.656,8.192t-2.56,10.752q0,3.072 0.512,7.68t 1.024,7.168-1.536,7.168q 1.024,0.512 2.56,2.56t 3.072,3.072q 0.512,0.512 1.536,0.512t 1.536,0 1.024,0.512 1.024,1.536q-0.512,0.512-1.024,1.024-1.024,1.024-1.024,1.024 2.048-1.024 8.192,0.512t 7.68-0.512q 4.096-3.072 6.144,0.512 0,0.512-0.512,2.56t0,4.096q 1.536-7.68 8.192-2.56 1.024-1.024 4.608-1.536t 5.12-1.536q 1.024-0.512 2.048-1.536t 1.536-1.536 1.536,0 2.56,2.048q 3.072-4.096 3.584-6.656 3.072-11.264 5.632-12.8 2.048-1.024 3.072-0.512t 1.536,2.56 0,4.096-0.512,3.584l-0.512,2.048 0,5.12-0.512,2.048q-4.096,1.024-5.12,3.584t 0.512,5.12 4.096,5.12q 0.512,0.512 2.048,1.024t 4.608,2.048 3.584,2.048q 6.144,5.632 4.096,10.24 2.048,0 3.072,2.56-0.512,0-1.536,1.024t-2.048,1.536-1.536,0.512q 2.56,1.536 0.512,4.608 1.536,1.024 2.048,3.072t 2.048,3.072q 2.56-3.584 6.144-0.512 2.048,2.048 0.512,4.608 1.536,2.048 5.632,3.072t 5.12,2.56q 2.048-0.512 2.048,0.512t 0.512,3.584 1.024,3.584q 1.024,1.536 4.096,2.56t 3.584,1.536l 4.608,3.072q 1.024,1.024 0,1.024 5.12-0.512 8.704,3.072 3.072,3.072-1.536,5.632 1.024,1.536-1.024,2.56t-4.096,1.536q 1.024,0.512 3.072,0t 3.072,0.512q 4.096,3.072-2.048,4.608-4.608,1.536-12.288-3.584z m-46.592-250.368q 58.88,10.24 100.352,53.76-1.024,1.024-3.584,1.536t-3.584,1.024q-5.12,2.048-6.656,2.048 0.512,2.048-0.512,3.584t-2.048,2.56-3.584,2.048-3.072,2.048q-0.512,0.512-2.048,1.536t-2.048,1.536-2.048,1.536-2.56,0.512-3.072-0.512l-1.024-0.512q-1.024-0.512-1.536-0.512t-1.536-1.024-1.024-1.024 0-0.512q-6.144,4.608-10.24,6.144-1.536,0.512-3.072,1.536t-3.072,2.048-3.072,0.512-3.072-2.048q-1.536-1.536-1.536-4.096t-0.512-3.584q-2.048,1.536 0,5.12t 0.512,5.12q-1.024,1.536-3.072,1.536t-3.584-1.536-3.072-2.56-2.56-2.048-2.56-1.536-2.56-2.048q-1.024-1.024-1.536-3.584t-1.536-3.072q-0.512,1.024-3.072,2.048t-2.56,1.536q 0.512-3.072 1.024-10.24t 1.536-10.752q 2.048-8.704-3.584-13.824-7.68-7.168-8.192-11.264-1.024-6.144 3.584-7.68 0-2.048-2.048-5.632t-2.048-6.144q0-1.536 0.512-4.608z" horiz-adv-x="438.784" data-tags="internetinhalte" />
<glyph unicode="&#x5a;" d="M 365.568,279.296q0,7.68-5.632,12.8t-12.8,5.632q-49.152,0-90.624-14.336t-74.24-38.4-67.072-62.464q-5.632-6.144-5.632-12.8 0-7.68 5.632-12.8t 12.8-5.632q 6.656,0 12.8,5.632 7.68,6.656 20.992,20.48t 18.944,18.944q 38.912,35.328 76.8,50.176t 89.6,14.848q 7.68,0 12.8,5.632t 5.632,12.8z m 146.432,56.32q0-27.136-5.632-55.296-13.312-64-52.736-109.568t-101.888-76.8q-60.928-30.72-124.928-30.72-42.496,0-81.92,13.312-4.096,1.536-25.088,11.776t-27.648,10.752q-4.608,0-11.264-9.216t-12.8-19.968-14.848-19.968-16.896-9.216q-8.704,0-14.336,3.072t-8.704,6.656-7.68,11.776q-0.512,1.024-1.536,3.072t-1.536,3.072-1.024,2.56-0.512,4.096q0,10.24 8.704,20.992t 19.456,18.944 19.456,15.872 8.704,13.824q0,1.024-4.096,10.752t-4.608,12.8q-2.56,14.336-2.56,29.696 0,32.768 12.288,62.976t 33.792,52.736 48.64,39.936 58.368,27.136q 15.872,5.12 41.472,7.168t 51.2,2.56 51.2,1.536 46.592,6.656 32.256,16.384l 8.192,8.192t 8.192,8.192 7.68,5.632 10.24,4.608 12.288,1.536q 11.264,0 19.968-13.312t 13.824-31.744 6.656-35.328 2.048-27.648z" data-tags="ordnungsposition" />
<glyph unicode="&#x5b;" d="M 186.88,38.144q-77.312,0-132.096,54.272t-54.784,132.096 54.784,132.096 132.096,54.784 132.096-54.784 54.272-132.096-54.272-132.096-132.096-54.272z m-27.136,316.928q-39.936-8.192-67.584-36.352t-36.352-67.584l 50.688,0q 10.752,0 18.432-8.192t 7.68-18.944-7.68-18.432-18.432-7.68l-50.688,0q 8.192-39.936 36.352-68.096t 67.072-36.352l0,50.688q0,10.752 8.192,18.944t 18.944,8.192 18.432-8.192 7.68-18.944l0-50.688q 38.912,8.192 67.584,36.352t 36.864,68.096l-50.688,0q-10.752,0-18.944,7.68t-8.192,18.432 8.192,18.944 18.944,8.192l 50.688,0q-8.192,38.912-36.352,67.072t-68.096,36.352l0-50.688q0-10.752-7.68-18.432t-18.432-7.68-18.944,7.68-8.192,18.432l0,50.688z" horiz-adv-x="373.248" data-tags="leistungsauftragerfassung" />
<glyph unicode="&#x5c;" d="M 402.249,79.104q0-34.304-20.992-54.272t-55.296-19.968l-249.856,0q-34.816,0-55.296,19.968t-20.992,54.272q0,15.36 1.024,29.696t 4.096,31.232 7.68,31.232 12.288,27.648 17.92,23.040 24.576,15.36 31.744,5.632q 2.56,0 11.776-6.144t 21.504-13.824 30.72-13.824 37.888-6.144 37.888,6.144 30.72,13.824 21.504,13.824 11.776,6.144q 17.408,0 31.744-5.632t 24.576-15.36 17.92-23.040 12.288-27.648 7.68-31.232 4.096-31.232 1.024-29.696z m-91.648,254.976q0-45.568-32.256-77.312t-77.312-32.256-77.312,32.256-32.256,77.312 32.256,77.312 77.312,32.256 77.312-32.256 32.256-77.312z" horiz-adv-x="401.92" data-tags="kontakt" />
<glyph unicode="&#x5d;" d="M 488.448,301.312q 16.384,0 20.48-6.144t 3.072-18.432l-21.504-231.424q-1.024-12.288-6.144-18.944t-21.504-6.656l-412.672,0q-26.624,0-28.672,25.6l-21.504,231.424q-1.024,12.288 3.072,18.432t 20.48,6.144l 464.896,0z m-17.408,56.32l 5.12-20.48-433.152,0 7.168,67.584q 2.048,10.24 10.24,17.408t 18.432,7.168l 83.968,0q 26.624,0 44.032-17.408l 15.36-15.36q 16.384-18.432 44.032-18.432l 174.080,0q 10.24,0 19.456-6.144t 11.264-14.336z" horiz-adv-x="512.512" data-tags="ordner" />
<glyph unicode="&#x5e;" d="M 466.432,24.832q0-12.288-8.704-20.992t-19.968-8.704l-400.384,0q-12.288,0-20.48,8.704t-8.192,20.48l0,256.512 457.216,0 0-256.512z m-285.696,370.688l 285.696,0 0-56.832-457.216,0 0,114.176 171.52,0 0-57.344z" horiz-adv-x="475.136" data-tags="dossier" />
<glyph unicode="&#x5f;" d="M 36.279,41.728l 292.352,0 0,219.648-118.784,0q-11.264,0-19.456,8.192t-8.192,19.456l0,118.784-146.432,0 0-365.568z m 182.784,256l 107.52,0q-3.072,8.192-6.144,11.776l-89.6,89.6q-3.584,3.584-11.776,6.144l0-107.52z m 146.432-9.216l0-256q0-11.264-8.192-19.456t-19.456-8.192l-310.784,0q-11.264,0-19.456,8.192t-8.192,19.456l0,384q0,11.264 8.192,19.456t 19.456,8.192l 182.784,0q 11.264,0 25.088-5.632t 21.504-13.824l 89.088-89.088q 8.192-8.192 13.824-21.504t 5.632-25.088z" horiz-adv-x="365.568" data-tags="seite" />
<glyph unicode="&#x60;" d="M 174.080,167.168l0-34.816-102.4,40.96 0,34.816z m0,106.496l0-34.816-102.4,40.96 0,34.816z m 275.456,177.152q 11.264-6.144 11.264-21.504l0-327.68q0-17.408-16.384-23.552l-203.776-81.92q-4.096-1.024-5.12-1.024t-2.56-0.512-2.56-0.512-2.56,0.512-2.56,0.512l-5.12,1.024-203.776,81.92q-16.384,6.144-16.384,23.552l0,327.68q0,15.36 11.264,21.504 11.264,8.192 23.552,3.072l 195.584-78.848 195.584,78.848q 12.288,5.12 23.552-3.072z m-244.736-403.456l0,286.72-163.84,65.536 0-286.72z m 215.040,65.536l0,286.72-163.84-65.536 0-286.72z m-30.72,95.232l0-34.816-102.4-40.96 0,34.816z m0,106.496l0-34.816-102.4-40.96 0,34.816z" horiz-adv-x="460.8" data-tags="journal" />
<glyph unicode="&#x61;" d="M 404.992,301.312q 29.696-70.656 34.304-132.096t-19.968-71.68q-14.336-6.144-31.232,1.536t-33.28,20.48-50.688,20.992-76.288,4.096q-14.336-2.048-21.504-9.728t-3.072-18.944q 11.264-28.672 23.552-55.296 2.048-5.12 12.288-11.264t 12.288-10.24q 7.168-17.408-11.264-23.552-25.6-11.264-52.224-20.48-15.36-5.12-27.648,21.504-16.384,38.912-29.696,67.584-3.072,6.144-17.408,8.704t-23.552,15.872q-15.36-5.12-19.456-7.168-17.408-6.144-37.888,6.144t-27.648,30.72q-8.192,16.384-2.56,40.448t 22.016,31.232q 64.512,26.624 109.056,55.296t 63.488,52.736 30.208,47.104 12.8,39.936 7.68,30.208 18.432,18.432q 24.576,10.24 66.56-35.84t 72.704-116.736z m-14.336-153.6q 4.096,2.048 5.12,19.456t-5.632,50.176-20.992,65.536q-14.336,33.792-34.304,62.976t-34.304,43.008-18.432,11.776-5.12-21.504 5.12-53.76 20.48-68.096 34.816-60.928 34.816-38.912 18.432-9.728z" horiz-adv-x="440.32" data-tags="aktuelles" />
<glyph unicode="&#x62;" d="M 256,442.624l 133.12-124.928-83.968,0 0-131.072-97.28,0 0,131.072-84.992,0z m 239.616-295.936q 9.216-5.12 13.824-16.384t 1.536-20.48l-14.336-78.848q-2.048-10.24-11.264-16.896t-20.48-6.656l-417.792,0q-11.264,0-20.48,6.656t-11.264,16.896l-14.336,78.848q-5.12,24.576 16.384,36.864l 80.896,55.296 50.176,0-87.040-66.56 91.136,0q 4.096,0 6.144-4.096l 20.48-56.32 153.6,0 20.48,56.32q 4.096,4.096 6.144,4.096l 91.136,0-87.040,66.56 50.176,0z" data-tags="hochladen" />
<glyph unicode="&#x63;" d="M 495.616,146.688q 9.216-5.12 13.824-16.384t 1.536-20.48l-14.336-78.848q-2.048-10.24-11.264-16.896t-20.48-6.656l-417.792,0q-11.264,0-20.48,6.656t-11.264,16.896l-14.336,78.848q-5.12,24.576 16.384,36.864l 80.896,55.296 50.176,0-87.040-66.56 91.136,0q 4.096,0 6.144-4.096l 20.48-56.32 153.6,0 20.48,56.32q 4.096,4.096 6.144,4.096l 91.136,0-87.040,66.56 50.176,0z m-106.496,164.864l-133.12-124.928-133.12,124.928 84.992,0 0,131.072 97.28,0 0-131.072 83.968,0z" data-tags="download" />
<glyph unicode="&#x64;" d="M 358.4,454.912q 21.504,0 36.352-14.848t 14.848-36.352l0-358.4q0-20.48-14.848-35.84t-36.352-15.36l-307.2,0q-20.48,0-35.84,15.36t-15.36,35.84l0,358.4q0,21.504 15.36,36.352t 35.84,14.848l 307.2,0z m0-409.6l0,358.4-307.2,0 0-358.4 307.2,0z m-128,128l0-25.6-128,0 0,25.6 128,0z m 76.8,102.4l0-25.6-102.4,0 0,25.6 102.4,0z m-102.4,25.6l0,51.2 102.4,0 0-51.2-102.4,0z m-25.6,51.2l0-102.4-76.8,0 0,102.4 76.8,0z m-25.6-128l0-25.6-51.2,0 0,25.6 51.2,0z m 25.6-25.6l0,25.6 128,0 0-25.6-128,0z m 128-76.8l0-25.6-204.8,0 0,25.6 204.8,0z m-51.2,25.6l0,25.6 51.2,0 0-25.6-51.2,0z" horiz-adv-x="409.6" data-tags="newsletter-abonieren" />
<glyph unicode="&#x65;" d="M 323.584,263.424q 8.192-17.408 20.48-26.624t 23.040-11.264 22.528-11.776 17.92-28.16q 11.264-31.744-37.888-82.432t-129.024-80.384q-83.968-29.696-152.064-23.040t-79.36,38.4q-10.24,27.648 6.144,56.832t 9.216,56.832q-28.672,98.304-24.064,153.6t 57.856,98.304q 13.312,11.264 14.848,26.112t 14.848,19.968q 12.288,4.096 23.552-6.144t 28.672-9.216q 67.584,1.024 101.376-33.792t 81.92-137.216z m-95.232-206.848q 45.056,16.384 81.408,43.52t 51.2,46.592 12.8,25.6q-4.096,11.264-25.088,16.896t-63.488,0.512-95.744-24.576q-52.224-19.456-88.576-44.544t-48.128-43.008-8.704-27.136q 2.048-6.144 25.6-11.264t 68.608-2.048 90.112,19.456z m-31.744,89.088q 4.096,1.024 10.752,3.584t 8.704,3.584l 1.024-1.024q 7.168-20.48-8.704-42.496t-45.568-32.256q-49.152-18.432-77.824,7.168 39.936,34.816 111.616,61.44z" horiz-adv-x="409.6" data-tags="termine" />
<glyph unicode="&#x66;" d="M 212.992,438.016q 88.576,0 151.040-62.464t 62.976-150.528-62.976-150.528-151.040-62.464-150.528,62.464-62.464,150.528 62.464,150.528 150.528,62.464z m-133.12-212.992q0-55.296 38.912-94.208t 94.208-38.912q 32.256,0 61.44,15.36l-179.2,179.2q-15.36-29.696-15.36-61.44z m 250.88-61.44q 15.872,30.72 15.872,61.44 0,55.296-39.424,94.208t-94.208,38.912q-31.232,0-60.928-15.36z" horiz-adv-x="427.008" data-tags="storniert" />
<glyph unicode="&#x22;" d="M 132,252L 132,188L 20,188L 20,76L 132,76L 132,12L 324,132 			zM 380,332L 380,444L 156,444L 156,380L 300,380L 300,300L 156,300L 156,268L 364.336,132L 204,28L 492,28L 492,332 			zM 396,444L 492,348L 396,348 	zM 92,364L 284,364L 284,316L 92,316z" data-tags="pdfExport" />
<glyph unicode="&#x23;" d="M 63.504,345.088L 63.504-4L 325.328-4L 325.328,236L 216.24,236L 216.24,345.088 	zM 128.96,410.544L 281.696,410.544L 281.696,345.088L 259.32,366.912L 128.96,366.912 	zM 194.416,476L 347.128,476L 347.152,410.544L 325.88,432.368L 194.416,432.368 	zM 347.128,83.28L 347.128,279.632L 325.328,301.456L 391.736,301.456L 390.776,83.28 	zM 303.504,410.544L 390.784,323.28L 303.504,323.28 	zM 238.048,345.088L 325.328,257.824L 325.328,257.824L 238.048,257.824 	zM 368.96,476L 456.24,388.72L 368.96,388.72 zM 412.584,148.72L 412.584,345.088L 390.784,366.912L 457.192,366.912L 456.232,148.72 z" data-tags="kapitel" />
<glyph unicode="&#x41;" d="M 238.080-4.352q 94.72,0 161.792,67.072t 67.072,161.792 -67.072,161.792 -161.792,67.072 -161.792-67.072 -67.072-161.792 67.072-161.792 161.792-67.072z m 1.024,343.040l 113.664-114.688 -113.664-113.664 0,84.992 -115.2,0 0,57.344 115.2,0 0,86.016z" horiz-adv-x="475.136" data-tags="right-circle" />
<glyph unicode="&#x6a;" d="M 64,192c0-17.674, 14.327-32, 32-32s 32,14.326, 32,32L 128,306.746 l 265.373-265.374c 12.496-12.496, 32.758-12.496, 45.254,0
	C 444.876,47.621, 448,55.811, 448,64s-3.124,16.379-9.373,22.627L 173.254,352L 288,352 c 17.673,0, 32,14.327, 32,32s-14.327,32-32,32L 64,416 
	L 64,192 z" data-tags="arrow-up-left, up, left, arrow, top left, up left" />
<glyph unicode="&#x6b;" d="M 438.627,278.627l-160,160c-12.496,12.497-32.757,12.497-45.254,0l-160-160c-12.497-12.497-12.497-32.758,0-45.255
	c 12.497-12.498, 32.758-12.498, 45.255,0L 224,338.745L 224,32 c0-17.673, 14.327-32, 32-32c 17.673,0, 32,14.327, 32,32L 288,338.745 l 105.373-105.373
	C 399.621,227.124, 407.811,224, 416,224s 16.379,3.124, 22.627,9.373C 451.124,245.87, 451.124,266.13, 438.627,278.627z" data-tags="arrow-up, upload, top" />
<glyph unicode="&#x6c;" d="M 416.010,416c-0.006,0-0.014,0-0.020,0L 224,416 c-17.673,0-32-14.327-32-32s 14.327-32, 32-32l 114.746,0 L 73.373,86.627
	c-12.497-12.496-12.497-32.758,0-45.254C 79.621,35.124, 87.811,32, 96,32s 16.379,3.124, 22.627,9.373L 384,306.746L 384,192 
	c0-17.673, 14.327-32, 32-32s 32,14.327, 32,32L 448,416 L 416.010,416 z" data-tags="arrow-up-right, up, right, arrow, top right, up right" />
<glyph unicode="&#x6d;" d="M 310.627,41.373l 160,160c 12.497,12.496, 12.497,32.758,0,45.255l-160,160c-12.497,12.496-32.758,12.496-45.255,0
	c-12.497-12.497-12.497-32.758,0-45.255L 370.745,256L 64,256 c-17.673,0-32-14.327-32-32s 14.327-32, 32-32l 306.745,0 L 265.372,86.627
	C 259.124,80.379, 256,72.189, 256,64s 3.124-16.379, 9.372-22.627C 277.869,28.876, 298.13,28.876, 310.627,41.373z" data-tags="arrow-right, right, next" />
<glyph unicode="&#x6e;" d="M 448,256c0,17.674-14.326,32-32,32c-17.673,0-32-14.326-32-32l0-114.746 L 118.627,406.628
	c-12.496,12.496-32.758,12.496-45.254,0C 67.124,400.379, 64,392.189, 64,384s 3.124-16.379, 9.373-22.627L 338.746,96L 224,96 
	c-17.673,0-32-14.327-32-32s 14.327-32, 32-32l 224,0 L 448,256 z" data-tags="arrow-down-right, down, right, arrow, bottom right, down right" />
<glyph unicode="&#x6f;" d="M 73.373,169.373l 160-160c 12.496-12.497, 32.758-12.497, 45.255,0l 160,160c 12.496,12.497, 12.496,32.758,0,45.255
	c-12.497,12.497-32.758,12.497-45.255,0L 288,109.255L 288,416 c0,17.673-14.327,32-32,32s-32-14.327-32-32l0-306.745 L 118.627,214.628
	C 112.379,220.876, 104.189,224, 96,224s-16.379-3.124-22.627-9.372C 60.876,202.131, 60.876,181.87, 73.373,169.373z" data-tags="arrow-down, download, bottom" />
<glyph unicode="&#x70;" d="M 288,32c 17.674,0, 32,14.326, 32,32c0,17.673-14.326,32-32,32L 173.254,96 l 265.374,265.373c 12.496,12.496, 12.496,32.758,0,45.254
	C 432.379,412.876, 424.189,416, 416,416s-16.379-3.124-22.627-9.373L 128,141.254L 128,256 c0,17.673-14.327,32-32,32s-32-14.327-32-32l0-224 L 288,32 z
	" data-tags="arrow-down-left, down, left, arrow, bottom left, down left" />
<glyph unicode="&#x71;" d="M 201.373,406.627l-160-160c-12.497-12.496-12.497-32.758,0-45.254l 160-160c 12.497-12.496, 32.758-12.496, 45.255,0
	c 12.498,12.496, 12.498,32.758,0,45.254L 141.254,192L 448,192 c 17.673,0, 32,14.326, 32,32c0,17.673-14.327,32-32,32L 141.254,256 l 105.373,105.373
	C 252.875,367.621, 256,375.811, 256,384s-3.124,16.379-9.372,22.627C 234.13,419.124, 213.87,419.124, 201.373,406.627z" data-tags="arrow-left, left, previous" />
<glyph unicode="&#xe000;" d="M 256,480C 114.624,480,0,365.376,0,224s 114.624-256, 256-256s 256,114.624, 256,256S 397.376,480, 256,480z M 384,192L 128,192 l0,64 l 256,0 L 384,192 z" data-tags="minus-alt, remove, delete" />
<glyph unicode="&#xe806;" d="M 329.070,242.432q0,52.736-37.376,90.624t-90.624,37.376-90.624-37.376-37.376-90.624 37.376-90.624 90.624-37.376 90.624,37.376 37.376,90.624z m 146.432-237.568q0-14.848-10.752-25.6t-25.6-10.752q-15.36,0-25.6,10.752l-97.792,97.792q-51.2-35.328-114.176-35.328-40.96,0-78.336,15.872t-64.512,43.008-43.008,64.512-15.872,78.336 15.872,78.336 43.008,64.512 64.512,43.008 78.336,15.872 78.336-15.872 64.512-43.008 43.008-64.512 15.872-78.336q0-62.976-35.328-114.176l 97.792-97.792q 10.752-10.752 10.752-25.6z" horiz-adv-x="475.136" data-tags="search" />
<glyph unicode="&#xe800;" d="M 150.528,104.192q 7.168,7.168 17.408,7.168t 18.432-7.168q 16.384-17.408 0-35.84l-21.504-20.48q-28.672-28.672-67.584-28.672-39.936,0-68.608,28.672t-28.672,67.584q0,39.936 28.672,68.608l 75.776,75.776q 35.84,34.816 73.728,39.424t 65.536-22.016q 8.192-8.192 8.192-18.432t-8.192-18.432q-18.432-16.384-35.84,0-25.6,24.576-67.584-17.408l-75.776-74.752q-13.312-13.312-13.312-32.768t 13.312-31.744q 13.312-13.312 32.256-13.312t 32.256,13.312z m 230.4,293.888q 28.672-28.672 28.672-67.584 0-39.936-28.672-68.608l-80.896-80.896q-37.888-36.864-76.8-36.864-31.744,0-57.344,25.6-7.168,7.168-7.168,17.408t 7.168,18.432q 7.168,7.168 17.92,7.168t 17.92-7.168q 25.6-24.576 62.464,12.288l 80.896,79.872q 14.336,14.336 14.336,32.768 0,19.456-14.336,31.744-12.288,13.312-28.672,15.872t-30.72-10.752l-25.6-25.6q-8.192-7.168-18.432-7.168t-17.408,7.168q-17.408,17.408 0,35.84l 25.6,25.6q 27.648,27.648 65.024,26.112t 66.048-31.232z" horiz-adv-x="409.6" data-tags="link" />
<glyph unicode="&#xe803;" d="M 127.963,352q0,15.36-10.752,25.6t-25.6,10.752-25.6-10.752-10.752-25.6 10.752-25.6 25.6-10.752 25.6,10.752 10.752,25.6z m 304.64-164.352q0-15.36-10.752-25.6l-140.288-140.8q-11.264-10.752-26.112-10.752-15.36,0-25.6,10.752l-204.288,204.8q-10.752,10.752-18.432,28.672t-7.68,33.28l0,118.784q0,14.848 10.752,25.6t 25.6,10.752l 118.784,0q 15.36,0 33.28-7.68t 29.184-18.432l 204.288-203.776q 10.752-11.264 10.752-26.112z" horiz-adv-x="438.784" data-tags="tag" />
<glyph unicode="&#xe802;" d="M 46.080,346.368l0-303.616 227.328,0 0,133.632 46.080,51.712 0-231.936-319.488,0 0,389.12 276.992,0-38.4-39.936-192.512,0z m 383.488,92.16c 17.92-17.408 16.896-45.056-1.536-63.488l-29.696-28.672 9.216,38.4-32.768,32.768-37.888-8.192 28.672,28.672c 17.92,17.92 46.080,17.92 63.488,0.512z m-112.128-50.688c0,1.536 33.28,10.24 38.4,11.776l 0.512,0.512 33.792-35.328c-2.048,0-11.776-38.4-11.776-38.4l-189.952-196.608-81.408-18.432-1.536,0.512 20.992,80.896z m-126.976-216.576l-23.040,23.552-17.92-3.072-11.776-10.752-5.12-20.48 23.552-23.040 19.968,4.608 11.776,11.776z" horiz-adv-x="442.368" data-tags="edit" />
<glyph unicode="&#xe80c;" d="M 460.142,278.784q0-15.36-10.752-25.6l-185.856-185.856q-10.752-10.752-26.112-10.752t-25.6,10.752l-185.856,185.856q-10.752,10.24-10.752,25.6t 10.752,26.112l 20.992,21.504q 11.264,10.752 26.112,10.752 15.36,0 25.6-10.752l 138.752-138.752 138.752,138.752q 10.752,10.752 25.6,10.752t 26.112-10.752l 21.504-21.504q 10.752-11.264 10.752-26.112z" horiz-adv-x="475.136" data-tags="down-open" />
<glyph unicode="&#xe80d;" d="M 211.749,30.464l-186.368,185.856q-10.752,10.752-10.752,25.6t 10.752,25.6l 186.368,185.856q 10.752,10.752 25.6,10.752t 25.6-10.752l 21.504-21.504q 10.752-10.752 10.752-25.6t-10.752-25.6l-138.752-138.752 138.752-138.752q 10.752-10.752 10.752-26.112t-10.752-25.6l-21.504-21.504q-10.752-10.752-25.6-10.752t-25.6,10.752z" horiz-adv-x="328.704" data-tags="left-open" />
<glyph unicode="&#xe80e;" d="M 313.637,242.432q0-14.848-10.752-26.112l-186.368-185.856q-10.752-10.752-25.6-10.752t-25.6,10.752l-21.504,21.504q-10.752,11.264-10.752,26.112 0,15.36 10.752,25.6l 138.752,138.752-138.752,138.752q-10.752,11.264-10.752,26.112 0,15.36 10.752,25.6l 21.504,21.504q 10.24,10.752 25.6,10.752t 25.6-10.752l 186.368-185.856q 10.752-10.752 10.752-25.6z" horiz-adv-x="328.704" data-tags="right-open" />
<glyph unicode="&#xe80f;" d="M 460.142,132.352q0-15.36-10.752-25.6l-21.504-21.504q-10.752-10.752-26.112-10.752t-25.6,10.752l-138.752,138.752-138.752-138.752q-10.24-10.752-25.6-10.752t-25.6,10.752l-21.504,21.504q-10.752,10.24-10.752,25.6t 10.752,26.112l 185.856,185.856q 10.752,10.752 25.6,10.752t 26.112-10.752l 185.856-185.856q 10.752-10.752 10.752-26.112z" horiz-adv-x="475.136" data-tags="up-open" />
<glyph unicode="&#xe808;" d="M 512,96l0-36.352q0-7.68-5.632-12.8t-12.8-5.632l-475.648,0q-7.68,0-12.8,5.632t-5.632,12.8l0,36.352q0,7.68 5.632,12.8t 12.8,5.632l 475.648,0q 7.68,0 12.8-5.632t 5.632-12.8z m-109.568,109.568l0-36.352q0-7.68-5.632-12.8t-12.8-5.632l-365.568,0q-7.68,0-12.8,5.632t-5.632,12.8l0,36.352q0,7.68 5.632,12.8t 12.8,5.632l 365.568,0q 7.68,0 12.8-5.632t 5.632-12.8z m 73.216,109.568l0-36.352q0-7.68-5.632-12.8t-12.8-5.632l-438.784,0q-7.68,0-12.8,5.632t-5.632,12.8l0,36.352q0,7.68 5.632,12.8t 12.8,5.632l 438.784,0q 7.68,0 12.8-5.632t 5.632-12.8z m-109.568,109.568l0-36.352q0-7.68-5.632-12.8t-12.8-5.632l-329.216,0q-7.68,0-12.8,5.632t-5.632,12.8l0,36.352q0,7.68 5.632,12.8t 12.8,5.632l 329.216,0q 7.68,0 12.8-5.632t 5.632-12.8z" data-tags="align-left" />
<glyph unicode="&#xe809;" d="M 512,96l0-36.352q0-7.68-5.632-12.8t-12.8-5.632l-475.648,0q-7.68,0-12.8,5.632t-5.632,12.8l0,36.352q0,7.68 5.632,12.8t 12.8,5.632l 475.648,0q 7.68,0 12.8-5.632t 5.632-12.8z m-109.568,109.568l0-36.352q0-7.68-5.632-12.8t-12.8-5.632l-256,0q-7.68,0-12.8,5.632t-5.632,12.8l0,36.352q0,7.68 5.632,12.8t 12.8,5.632l 256,0q 7.68,0 12.8-5.632t 5.632-12.8z m 73.216,109.568l0-36.352q0-7.68-5.632-12.8t-12.8-5.632l-402.432,0q-7.68,0-12.8,5.632t-5.632,12.8l0,36.352q0,7.68 5.632,12.8t 12.8,5.632l 402.432,0q 7.68,0 12.8-5.632t 5.632-12.8z m-109.568,109.568l0-36.352q0-7.68-5.632-12.8t-12.8-5.632l-182.784,0q-7.68,0-12.8,5.632t-5.632,12.8l0,36.352q0,7.68 5.632,12.8t 12.8,5.632l 182.784,0q 7.68,0 12.8-5.632t 5.632-12.8z" data-tags="align-center" />
<glyph unicode="&#xe80a;" d="M 512,96l0-36.352q0-7.68-5.632-12.8t-12.8-5.632l-475.648,0q-7.68,0-12.8,5.632t-5.632,12.8l0,36.352q0,7.68 5.632,12.8t 12.8,5.632l 475.648,0q 7.68,0 12.8-5.632t 5.632-12.8z m0,109.568l0-36.352q0-7.68-5.632-12.8t-12.8-5.632l-365.568,0q-7.68,0-12.8,5.632t-5.632,12.8l0,36.352q0,7.68 5.632,12.8t 12.8,5.632l 365.568,0q 7.68,0 12.8-5.632t 5.632-12.8z m0,109.568l0-36.352q0-7.68-5.632-12.8t-12.8-5.632l-438.784,0q-7.68,0-12.8,5.632t-5.632,12.8l0,36.352q0,7.68 5.632,12.8t 12.8,5.632l 438.784,0q 7.68,0 12.8-5.632t 5.632-12.8z m0,109.568l0-36.352q0-7.68-5.632-12.8t-12.8-5.632l-329.216,0q-7.68,0-12.8,5.632t-5.632,12.8l0,36.352q0,7.68 5.632,12.8t 12.8,5.632l 329.216,0q 7.68,0 12.8-5.632t 5.632-12.8z" data-tags="align-right" />
<glyph unicode="&#xe80b;" d="M 512,96l0-36.352q0-7.68-5.632-12.8t-12.8-5.632l-475.648,0q-7.68,0-12.8,5.632t-5.632,12.8l0,36.352q0,7.68 5.632,12.8t 12.8,5.632l 475.648,0q 7.68,0 12.8-5.632t 5.632-12.8z m0,109.568l0-36.352q0-7.68-5.632-12.8t-12.8-5.632l-475.648,0q-7.68,0-12.8,5.632t-5.632,12.8l0,36.352q0,7.68 5.632,12.8t 12.8,5.632l 475.648,0q 7.68,0 12.8-5.632t 5.632-12.8z m0,109.568l0-36.352q0-7.68-5.632-12.8t-12.8-5.632l-475.648,0q-7.68,0-12.8,5.632t-5.632,12.8l0,36.352q0,7.68 5.632,12.8t 12.8,5.632l 475.648,0q 7.68,0 12.8-5.632t 5.632-12.8z m0,109.568l0-36.352q0-7.68-5.632-12.8t-12.8-5.632l-475.648,0q-7.68,0-12.8,5.632t-5.632,12.8l0,36.352q0,7.68 5.632,12.8t 12.8,5.632l 475.648,0q 7.68,0 12.8-5.632t 5.632-12.8z" data-tags="buchblock" />
<glyph unicode="&#xe807;" d="M 402.249,78.592q0-34.304-20.992-54.272t-55.296-19.968l-249.856,0q-34.816,0-55.296,19.968t-20.992,54.272q0,15.36 1.024,29.696t 4.096,31.232 7.68,31.232 12.288,27.648 17.92,23.040 24.576,15.36 31.744,5.632q 2.56,0 11.776-6.144t 21.504-13.824 30.72-13.824 37.888-6.144 37.888,6.144 30.72,13.824 21.504,13.824 11.776,6.144q 17.408,0 31.744-5.632t 24.576-15.36 17.92-23.040 12.288-27.648 7.68-31.232 4.096-31.232 1.024-29.696z m-91.648,254.976q0-45.568-32.256-77.312t-77.312-32.256-77.312,32.256-32.256,77.312 32.256,77.312 77.312,32.256 77.312-32.256 32.256-77.312z" horiz-adv-x="401.92" data-tags="kontakt" />
<glyph unicode="&#xe801;" d="M 233.472,211.712l0-51.2-233.472,0q 4.096,115.712 5.12,149.504 2.048,55.296 51.2,55.296l 81.92,0q 8.192,13.312 18.944,34.304t 11.776,23.040q 7.168,13.312 11.776,16.384t 18.944,3.072l 113.664,0q 13.312,0 18.432-3.584t 11.264-15.872q 9.216-16.384 30.72-57.344l 81.92,0q 49.152,0 51.2-55.296l 5.12-149.504-232.448,0 0,51.2-46.080,0z m-37.888,181.248l-14.336-27.648 149.504,0-14.336,27.648q-7.168,13.312-21.504,13.312l-77.824,0q-14.336,0-21.504-13.312z m 83.968-309.248l0,51.2 220.16,0q-3.072-45.056-5.12-84.992-3.072-43.008-46.080-43.008l-384,0q-46.080,0-46.080,43.008l-5.12,84.992 220.16,0 0-51.2 46.080,0z" data-tags="briefcase" />
<glyph unicode="&#xe805;" d="M 36.206,4.352l 82.432,0 0,82.432-82.432,0 0-82.432z m 100.352,0l 91.648,0 0,82.432-91.648,0 0-82.432z m-100.352,100.352l 82.432,0 0,91.648-82.432,0 0-91.648z m 100.352,0l 91.648,0 0,91.648-91.648,0 0-91.648z m-100.352,109.568l 82.432,0 0,82.432-82.432,0 0-82.432z m 210.432-210.432l 91.648,0 0,82.432-91.648,0 0-82.432z m-109.568,210.432l 91.648,0 0,82.432-91.648,0 0-82.432z m 219.648-210.432l 82.432,0 0,82.432-82.432,0 0-82.432z m-109.568,100.352l 91.648,0 0,91.648-91.648,0 0-91.648z m-100.352,246.784l0,82.432q0,3.584-2.56,6.656t-6.656,2.56l-18.432,0q-3.584,0-6.656-2.56t-2.56-6.656l0-82.432q0-3.584 2.56-6.656t 6.656-2.56l 18.432,0q 3.584,0 6.656,2.56t 2.56,6.656z m 210.432-246.784l 82.432,0 0,91.648-82.432,0 0-91.648z m-109.568,109.568l 91.648,0 0,82.432-91.648,0 0-82.432z m 109.568,0l 82.432,0 0,82.432-82.432,0 0-82.432z m 9.216,137.216l0,82.432q0,3.584-2.56,6.656t-6.656,2.56l-18.432,0q-3.584,0-6.656-2.56t-2.56-6.656l0-82.432q0-3.584 2.56-6.656t 6.656-2.56l 18.432,0q 3.584,0 6.656,2.56t 2.56,6.656z m 109.568,18.432l0-365.568q0-14.848-10.752-25.6t-25.6-10.752l-402.432,0q-14.848,0-25.6,10.752t-10.752,25.6l0,365.568q0,14.848 10.752,25.6t 25.6,10.752l 36.352,0 0,27.648q0,18.944 13.312,32.256t 32.256,13.312l 18.432,0q 18.944,0 32.256-13.312t 13.312-32.256l0-27.648 109.568,0 0,27.648q0,18.944 13.312,32.256t 32.256,13.312l 18.432,0q 18.944,0 32.256-13.312t 13.312-32.256l0-27.648 36.352,0q 14.848,0 25.6-10.752t 10.752-25.6z" horiz-adv-x="475.136" data-tags="calendar" />
<glyph unicode="&#xe804;" d="M 358.4,454.4q 21.504,0 36.352-14.848t 14.848-36.352l0-358.4q0-20.48-14.848-35.84t-36.352-15.36l-307.2,0q-20.48,0-35.84,15.36t-15.36,35.84l0,358.4q0,21.504 15.36,36.352t 35.84,14.848l 307.2,0z m0-409.6l0,358.4-307.2,0 0-358.4 307.2,0z m-128,128l0-25.6-128,0 0,25.6 128,0z m 76.8,102.4l0-25.6-102.4,0 0,25.6 102.4,0z m-102.4,25.6l0,51.2 102.4,0 0-51.2-102.4,0z m-25.6,51.2l0-102.4-76.8,0 0,102.4 76.8,0z m-25.6-128l0-25.6-51.2,0 0,25.6 51.2,0z m 25.6-25.6l0,25.6 128,0 0-25.6-128,0z m 128-76.8l0-25.6-204.8,0 0,25.6 204.8,0z m-51.2,25.6l0,25.6 51.2,0 0-25.6-51.2,0z" horiz-adv-x="409.6" data-tags="newsletter-abonieren" />
<glyph unicode="&#x20;" horiz-adv-x="256" />
</font>
</defs>
</svg>
